<svg xmlns="http://www.w3.org/2000/svg" width="203.335" height="206" viewBox="0 0 203.335 206">
  <g id="interactive" transform="translate(-0.434 3)">
    <path id="Path_10" data-name="Path 10" d="M147.9,37.43H117.313a2.93,2.93,0,0,0,0,5.859H147.9a2.93,2.93,0,0,0,0-5.859Z" transform="translate(-67.56 -22.809)" fill="#2f89fc" stroke="#2f89fc" stroke-width="6"/>
    <path id="Path_11" data-name="Path 11" d="M55.851,43.289h8.914a2.93,2.93,0,0,0,0-5.859H55.851a2.93,2.93,0,0,0,0,5.859Z" transform="translate(-30.107 -22.809)" fill="#2f89fc" stroke="#2f89fc" stroke-width="6"/>
    <path id="Path_12" data-name="Path 12" d="M55.851,79.243H86.437a2.93,2.93,0,0,0,0-5.859H55.851a2.93,2.93,0,0,0,0,5.859Z" transform="translate(-30.107 -44.718)" fill="#2f89fc" stroke="#2f89fc" stroke-width="6"/>
    <path id="Path_13" data-name="Path 13" d="M181.709,73.384h-8.915a2.93,2.93,0,0,0,0,5.859h8.915a2.93,2.93,0,0,0,0-5.859Z" transform="translate(-101.369 -44.718)" fill="#2f89fc" stroke="#2f89fc" stroke-width="6"/>
    <path id="Path_14" data-name="Path 14" d="M183.5,63.616A13.929,13.929,0,0,0,169.9,74.6h-16a30.282,30.282,0,0,0-6.7-16.2l20.121-20.141A19.678,19.678,0,0,0,195,10.281,19.686,19.686,0,0,0,163.762,33.54c-.019.018-.039.034-.058.052L143.056,54.261a30.432,30.432,0,0,0-4.07-2.821,30.074,30.074,0,0,0-34.132,2.821l-9.279-9.287a9.825,9.825,0,0,0,1.6-5.386V9.88A9.888,9.888,0,0,0,87.305,0H20.816a9.888,9.888,0,0,0-9.873,9.88V39.587a9.888,9.888,0,0,0,9.873,9.88H43.905a2.93,2.93,0,0,0,0-5.859H20.816a4.021,4.021,0,0,1-4.014-4.02V9.88a4.021,4.021,0,0,1,4.014-4.02H87.305a4.021,4.021,0,0,1,4.014,4.02V39.587a4.021,4.021,0,0,1-4.014,4.02H57.438a2.93,2.93,0,0,0,0,5.859H87.305a9.811,9.811,0,0,0,3.74-.738l9.677,9.687A30.143,30.143,0,0,0,94.389,83.1l-35.107,20.3-.007,0a31.521,31.521,0,0,0-39.992-7.11A31.568,31.568,0,1,0,62.6,108.247l33.487-19.36a29.878,29.878,0,0,0,17.152,16.777V134.2a25.3,25.3,0,0,1-.187,3.341c-5.961-8.632-11.45-15.012-22-13.176a9.028,9.028,0,0,0-7.182,5.474c-1.127,2.924-.48,6.283,1.775,9.229l24.623,36.153c4.712,6.93,5.507,11.152,5.507,17.995A6.8,6.8,0,0,0,122.566,200h46.157a6.8,6.8,0,0,0,6.795-6.787V181.264a15.491,15.491,0,0,1,2.162-8.556,31.2,31.2,0,0,0,3.713-12.458,3,3,0,0,0,.017-.313V149.9a2.93,2.93,0,0,0-5.859,0v9.872a25.358,25.358,0,0,1-3.083,10.255,21.216,21.216,0,0,0-2.809,11.232v11.949a.944.944,0,0,1-.936.928H122.566a.944.944,0,0,1-.935-.928c0-7.759-1.009-13.182-6.521-21.291L90.436,135.7c-.034-.05-.07-.1-.107-.148-1.012-1.3-1.375-2.618-.995-3.605a3.357,3.357,0,0,1,2.726-1.81c6.764-1.178,10.386,2.318,16.441,11.132.041.06.085.119.13.176,2.21,2.752,4.422,3.763,6.573,3.006,2.691-.947,3.891-4.108,3.891-10.25V78.218c0-3.925,2.618-5.318,4.861-5.318s4.861,1.393,4.861,5.318v50.525a2.93,2.93,0,0,0,5.859,0V105.3c0-3.925,2.619-5.318,4.861-5.318a5.3,5.3,0,0,1,1.644.261q.132.056.267.1c1.595.627,2.95,2.135,2.95,4.957v27.357a2.93,2.93,0,0,0,5.859,0V111.939c0-3.925,2.618-5.318,4.861-5.318s4.861,1.393,4.861,5.318v24.63a2.93,2.93,0,0,0,5.859,0V118.578c0-3.928,2.614-5.322,4.853-5.322a4.9,4.9,0,0,1,3.345,1.266,5.324,5.324,0,0,1,1.513,4.055v17.791a2.93,2.93,0,0,0,5.859,0V118.578c0-7.341-5.392-11.181-10.718-11.181a11.014,11.014,0,0,0-5.238,1.32,10.459,10.459,0,0,0-10.335-7.955,11.032,11.032,0,0,0-5.245,1.321,10.375,10.375,0,0,0-2.953-5.1,30.065,30.065,0,0,0,6.987-16.523h16A13.9,13.9,0,1,0,183.5,63.616Zm-12.17-49.192,0,0a13.82,13.82,0,0,1,19.529,19.56,13.82,13.82,0,0,1-19.531-19.558ZM47.9,145.9h0a25.658,25.658,0,0,1-35.088-9.414A25.695,25.695,0,1,1,47.9,145.9ZM148.187,77.577a24.22,24.22,0,0,1-6.719,16.715,11.085,11.085,0,0,0-6.792.952V78.218c0-7.338-5.393-11.177-10.72-11.177s-10.72,3.839-10.72,11.177V99.283a24.231,24.231,0,1,1,34.954-21.823c0,.024,0,.047,0,.071s0,.03,0,.046Zm35.309,8a8.05,8.05,0,1,1,8.034-8.045A8.054,8.054,0,0,1,183.5,85.575Z" transform="translate(0 0)" fill="#2f89fc" stroke="#2f89fc" stroke-width="6"/>
    <path id="Path_15" data-name="Path 15" d="M64.962,278.988a14.847,14.847,0,0,0-7.68,28.684,14.753,14.753,0,0,0,11.262-1.486h0a14.854,14.854,0,0,0-3.584-27.2Zm.65,22.125a9,9,0,1,1,3.282-12.272A8.922,8.922,0,0,1,65.612,301.113Z" transform="translate(-26.064 -169.696)" fill="#2f89fc" stroke="#2f89fc" stroke-width="6"/>
  </g>
</svg>
