<svg xmlns="http://www.w3.org/2000/svg" width="238.14" height="200" viewBox="0 0 238.14 200">
  <g id="search" transform="translate(0 -41)">
    <path id="Path_8" data-name="Path 8" d="M71.977,105A6.977,6.977,0,0,0,65,111.977v37.209a6.977,6.977,0,1,0,13.953,0V111.977A6.977,6.977,0,0,0,71.977,105Z" transform="translate(-34.767 -34.233)" fill="#2f89fc"/>
    <path id="Path_9" data-name="Path 9" d="M177.36,151.7h25.9a34.923,34.923,0,0,0,34.884-34.884V75.884A34.923,34.923,0,0,0,203.256,41H34.884A34.923,34.923,0,0,0,0,75.884v40.93A34.923,34.923,0,0,0,34.884,151.7h40.78c14.334,33.454,56.478,43.95,84.8,21.86L172.982,185.8a21.85,21.85,0,0,0,4.159,25.117l23.68,23.68a21.86,21.86,0,1,0,30.915-30.915L208.057,180a21.9,21.9,0,0,0-25.231-4.092l-12.509-12.236A54.873,54.873,0,0,0,177.36,151.7ZM34.884,137.744a20.954,20.954,0,0,1-20.93-20.93V75.884a20.954,20.954,0,0,1,20.93-20.93H203.256a20.954,20.954,0,0,1,20.93,20.93v40.93a20.954,20.954,0,0,1-20.93,20.93H181.271a55.33,55.33,0,1,0-109.519,0ZM97.24,159.108a41.4,41.4,0,1,1,58.542,0,41.373,41.373,0,0,1-58.542,0Zm100.95,30.76,23.68,23.68a7.907,7.907,0,0,1-11.182,11.182l-23.68-23.68a7.907,7.907,0,1,1,11.182-11.182Z" fill="#2f89fc"/>
  </g>
</svg>
