<?xml version="1.0" encoding="utf-8"?>
<!-- Generator: Adobe Illustrator 24.1.0, SVG Export Plug-In . SVG Version: 6.00 Build 0)  -->
<svg version="1.1" id="Layer_1" xmlns="http://www.w3.org/2000/svg" xmlns:xlink="http://www.w3.org/1999/xlink" x="0px" y="0px"
	 viewBox="0 0 635 403" style="enable-background:new 0 0 635 403;" xml:space="preserve">
<style type="text/css">
	.st0{opacity:0.5658;fill:#FFFFFF;enable-background:new    ;}
	.st1{fill-rule:evenodd;clip-rule:evenodd;fill:#8DAEFF;}
	.st2{opacity:0.1925;fill:#006FC5;enable-background:new    ;}
	.st3{fill:#FFFFFF;}
	.st4{fill-rule:evenodd;clip-rule:evenodd;fill:#FFD827;}
	.st5{fill:#8DAEFF;}
	.st6{fill-rule:evenodd;clip-rule:evenodd;fill:#00233C;}
	.st7{fill-rule:evenodd;clip-rule:evenodd;fill:#0F0F0F;}
	.st8{fill:none;stroke:#0F0F0F;}
	.st9{fill-rule:evenodd;clip-rule:evenodd;fill:#4785FF;}
	.st10{fill:none;stroke:#006FC5;stroke-dasharray:9;}
</style>
<desc>Created with Sketch.</desc>
<g>
	<path class="st0" d="M448.9,288.5l-0.6-64.4c0,0,0.2,0.2,0.5,0.6l-5.2-5.9l36.8-49c-11.2-17-49.2-70.9-83.7-76.3l0,0
		c-25.6-3.7-44.1,0.4-44.1,0.4s-30.7,6.4-39.2,43.2c-5.5,24.2-8.9,127.1-10.3,186.8c7.7-1.6,19.8-4.2,37.6-8.4
		C365.2,309.6,400.6,300.7,448.9,288.5z"/>
</g>
<g>
	<path id="Fill-4" class="st1" d="M222.2,84.6c0,3.9-3.2,7.1-7.1,7.1c-3.9,0-7.1-3.2-7.1-7.1s3.2-7.1,7.1-7.1
		C219.1,77.5,222.2,80.7,222.2,84.6"/>
	<g>
		<path class="st2" d="M245.3,327.7V61.9H1.3v104.9C92.6,310.8,211.7,326.3,245.3,327.7z"/>
		<polygon class="st3" points="1.3,166.7 1.3,166.9 1.3,166.7 		"/>
	</g>
	<path id="Fill-9" class="st4" d="M513.9,8.7L547.3,0c0,0,4.1,23.8,3.5,37.9l-34.4,6.7C516.4,44.7,516.8,26.2,513.9,8.7"/>
	<path id="Fill-11" class="st4" d="M460.1,150.1l28-3.1c0,0-2.1,25.6-13.8,40.4H446C446,187.3,461.1,170.9,460.1,150.1"/>
	<path id="Fill-13" class="st4" d="M460.1,83.2l28-3.3c0,0-2.1,26.6-13.8,40.4H446C446,120.3,461.1,104.1,460.1,83.2"/>
	<g>
		<path class="st5" d="M447.9,288.7l-0.2-64.6c0,0,41.3,45.7,71.5,1.6c30.1-44.1,56.5-154.5,42.3-164.8c0,0,0.4-10.5-11-13.8
			c0,0-3.1-6.6-8.7-8.4c0,0,1.9-28-3.2-27.5c-5.2,0.5-11.8,11.3-10.5,30.8l-11.3,2.8l-0.6-15.6c0,0-3.9,14.7-7.8,22
			c-3.5,6.7-0.2,45.2-0.2,45.2L483,174.6c0,0-45.9-75.2-86.8-81.5l0,0c-25.6-3.7-44,0.4-44,0.4s-30.7,6.6-39.1,43.6
			c-5.7,25.2-8.2,128.5-9.2,186.8c7.8-1.6,19.6-4.1,36.8-8.3C365.1,309.7,400.1,300.8,447.9,288.7z"/>
	</g>
	<path id="Fill-17" class="st4" d="M600.2,146.8l28-3.3c0,0-2.1,26.6-13.8,40.4h-28.3C586.1,183.9,601.1,167.7,600.2,146.8"/>
	<path id="Fill-21" class="st1" d="M405,39.6l-1.7-8.1c0,0-0.4-2-1.4-4.9c-1.1,1.8-3.6,3.8-8.3,5c0,0,1.5,8.5-4.8,14.2v7.7
		c0,0-4.1-14.2-9.7-10.5c-5.7,3.7-3.6,18.5,5.7,18.8c0,0-1.6,16.5-22.8,15.1l-5.4,16.9c0,0,16.1-3.5,38.5-0.3l-4.6-11.2
		c0,0,16.7-1.2,17.1-23.4C414,56.1,405,39.6,405,39.6"/>
	<path id="Fill-23" class="st6" d="M384.4,62.3c-9.3-0.3-11.5-15-5.8-18.6c5.7-3.7,9.8,10.4,9.8,10.4v-7.6
		c7.4-5.6,4.8-14.1,4.8-14.1c4.7-1.2,7.1-3.2,8.2-5c-3.1-8.8-12.5-25.6-37.1-16c-32.6,12.7-18.1,55.6-2.8,65.8
		C382.7,78.7,384.4,62.3,384.4,62.3"/>
	<path id="Fill-25" class="st7" d="M402.2,43.8c0,1.9-0.8,3.4-1.7,3.4c-0.9,0-1.7-1.5-1.7-3.4c0-1.9,0.8-3.4,1.7-3.4
		C401.4,40.4,402.2,41.9,402.2,43.8"/>
	<path id="Stroke-27" class="st8" d="M385.9,58.3c0,0-4.5,1.3-2.8-4.8c1.7-6.1-6.5-3.5-3.4,0"/>
	<path id="Stroke-29" class="st8" d="M404.8,66.6c0,0-5.7,2-7.7-3.1"/>
	<path id="Stroke-33" class="st8" d="M516.5,58.4l12.7-12l-0.2-3.7c0,0,0.1-27.6,9.9-31.5"/>
	<path id="Stroke-35" class="st8" d="M539.7,12c0,0,2.4,0.2,2.8,6.4s1.5,33.8,1.5,33.8L539.7,67"/>
	<path id="Stroke-37" class="st8" d="M550.8,48.1c0,0,2.9,9.6-1.7,21.5"/>
	<path id="Stroke-39" class="st8" d="M561.9,60.1c0,0,1.1,7.6-2.4,14.6"/>
	<path id="Stroke-41" class="st8" d="M541.4,25.8c0,0-7.1-0.2-4.6-9.7c2.1-8.1,4.6-1.6,4.6-1.6"/>
	<path id="Stroke-43" class="st8" d="M480.4,228.6c0,0,14.1-16.6,24.9-3.7"/>
	<path id="Stroke-45" class="st8" d="M404.8,40.4c0,0,7.8,16.4,2.3,18.9"/>
	<path id="Stroke-47" class="st8" d="M352.4,93.7c0,0,19.8-3.7,43.8-0.3"/>
	<polygon id="Fill-49" class="st1" points="448.6,224.5 399.6,170.1 448.6,280.1 	"/>
	<polyline id="Stroke-51" class="st8" points="479.5,169.3 442.8,219.1 398.8,169.3 	"/>
	<path id="Fill-53" class="st4" d="M466.1,18.7l28-3.2c0,0-2.1,26.6-13.8,40.4H452C452,55.9,467.1,39.6,466.1,18.7"/>
	<path id="Fill-55" class="st4" d="M606.2,18.7l28-3.2c0,0-2.1,26.6-13.8,40.4h-28.3C592.1,55.9,607.1,39.6,606.2,18.7"/>
	<path id="Fill-57" class="st4" d="M600.2,83.2l28-3.3c0,0-2.1,26.6-13.8,40.4h-28.3C586.1,120.3,601.1,104.1,600.2,83.2"/>
	<polygon id="Fill-59" class="st9" points="389.9,82.9 381.6,76.5 391.9,87.6 	"/>
	<path id="Stroke-61" class="st8" d="M483.8,174.4l8.6,13.7"/>
	<path id="Stroke-69" class="st10" d="M1.3,166.7c0,0,83.2,113.1,169,132.6c0,0,29,6.1,30.9-28.1c1.3-23.5-37.7,34.1,9.7,44.1
		c51.5,10.9,94.9,6.4,134.6-5.2c61.9-18.1,201-74.9,262.3-30.5"/>
</g>
</svg>
