<?xml version="1.0" encoding="utf-8"?>
<!-- Generator: Adobe Illustrator 24.1.0, SVG Export Plug-In . SVG Version: 6.00 Build 0)  -->
<svg version="1.1" id="Layer_1" xmlns="http://www.w3.org/2000/svg" xmlns:xlink="http://www.w3.org/1999/xlink" x="0px" y="0px"
	 viewBox="0 0 970 409" style="enable-background:new 0 0 970 409;" xml:space="preserve">
<style type="text/css">
	.st0{fill:#7AA0F0;}
	.st1{fill-rule:evenodd;clip-rule:evenodd;fill:#8DAEFF;}
	.st2{opacity:0.3889;}
	.st3{filter:url(#Adobe_OpacityMaskFilter);}
	.st4{fill-rule:evenodd;clip-rule:evenodd;fill:#FFFFFF;}
	.st5{mask:url(#mask-4_1_);fill-rule:evenodd;clip-rule:evenodd;fill:#8DAEFF;}
	.st6{fill-rule:evenodd;clip-rule:evenodd;fill:#00233C;}
	.st7{fill-rule:evenodd;clip-rule:evenodd;fill:#4785FF;}
	.st8{fill:none;stroke:#0F0F0F;}
	.st9{fill-rule:evenodd;clip-rule:evenodd;fill:#5F8CD6;}
	.st10{fill-rule:evenodd;clip-rule:evenodd;fill:#0F0F0F;}
	.st11{opacity:0.4947;fill:#FFFFFF;enable-background:new    ;}
	.st12{fill:none;stroke:#006FC5;stroke-dasharray:9;}
	.st13{fill-rule:evenodd;clip-rule:evenodd;fill:#7AA0F0;}
	.st14{fill-rule:evenodd;clip-rule:evenodd;fill:#627CB0;}
	.st15{fill:none;stroke:#00233C;}
</style>
<desc>Created with Sketch.</desc>
<g id="Mask">
</g>
<g transform="translate(-204.000000, 81.000000)">
	<g id="Clip-31_1_">
	</g>
	<g>
		<path class="st0" d="M748.1,221.1c15.5-5,32.8-9.9,51.5-14.5l-7.1-36.7c-3.9-22.3-18.1-26.1-18.1-26.1l-99-36.9l-87.1,4
			l-86.7,24.6l-17.7,87.7C576.6,242.1,671.5,245.9,748.1,221.1z"/>
	</g>
	<path id="Fill-5" class="st1" d="M768.8,22.6c-19.6-1.9-36.7,9.5-38.2,25.4c-0.1,0.6-0.1,1.2-0.1,1.8l-0.1,0
		c0,0,0.7,16.4-18.2,21.1c0,0,14.1,8.1,33.4,3.6c5,3.1,11.1,5.1,17.7,5.8c19.6,1.9,36.7-9.5,38.2-25.4
		C803,38.9,788.4,24.5,768.8,22.6"/>
	<g id="Group-9" transform="translate(701.454545, 0.000000)" class="st2">
		<g id="Clip-8">
		</g>
		<defs>
			<filter id="Adobe_OpacityMaskFilter" filterUnits="userSpaceOnUse" x="0.4" y="-80.2" width="126.8" height="109.3">
				<feColorMatrix  type="matrix" values="1 0 0 0 0  0 1 0 0 0  0 0 1 0 0  0 0 0 1 0"/>
			</filter>
		</defs>
		<mask maskUnits="userSpaceOnUse" x="0.4" y="-80.2" width="126.8" height="109.3" id="mask-4_1_">
			<g class="st3">
				<polygon id="path-3_1_" class="st4" points="0.4,-80.2 127.2,-80.2 127.2,29.1 0.4,29.1 				"/>
			</g>
		</mask>
		<path id="Fill-7" class="st5" d="M65.2-79.6c-30.8,4-53.1,27.5-49.9,52.6c0.1,1,0.3,1.9,0.5,2.8l-0.1,0c0,0,12.1,39.4-15.4,53.3
			c0,0,30.7-0.8,47.4-20.7c8.8,2.9,18.8,4,29.2,2.6c30.8-4,53.1-27.5,49.9-52.6C123.6-66.5,96-83.6,65.2-79.6"/>
	</g>
	<path id="Fill-10" class="st6" d="M679.9-16.1l5-11.1c0,0-3.1-31.6-48.6-34.4c-45.5-2.8-69.6,22-73.1,44.9
		c-3.5,22.9,4,52.2,14.2,63.1c10.2,10.9,27.8,9.1,27.8,9.1l45.4-19.2L679.9-16.1z"/>
	<path id="Fill-12" class="st7" d="M602.7,71c0,0,18.7,29.9,70.2,24.9l-3.4-15.2C669.5,80.7,626,97.1,602.7,71"/>
	<path id="Fill-14" class="st1" d="M602.7,71c23.3,26.2,66.8,9.7,66.8,9.7c24.6-10.5,21.8-37.9,21.8-37.9c1.6-23.4-6.4-70-6.4-70
		c-25.5,20.4-77.5,14.1-77.5,14.1c1.5,18.2-13.9,30-13.9,30l-0.7,23.8c-5.9-25.8-43.6-42.3-36.5-9.6c7.1,32.7,31.8,37.9,31.8,37.9
		l-4.6,47.3c66.8,16.8,92.8-5.2,92.8-5.2l-3.4-15.2C621.4,100.9,602.7,71,602.7,71"/>
	<path id="Stroke-16" class="st8" d="M585.8,52.5c0,0-7.5,3-9.4-12.8c-1.9-15.8-13.9-16.5-13.1-8.1"/>
	<path id="Stroke-20" class="st8" d="M651.2,3.7c0,0,22.3,36.1,6.6,41.6"/>
	<path id="Fill-22" class="st9" d="M621.3,56.4c25.9,28.5,42.4,18.1,51.5,5.1c-3.9-3.3-8-5.9-11.6-7.8
		C642.4,58.6,621.3,56.4,621.3,56.4"/>
	<path id="Fill-24" class="st6" d="M661.1,53.7c3.7,1.9,7.7,4.5,11.6,7.8c6-8.6,8.8-18.3,8.8-18.3C676.3,48.4,668.9,51.7,661.1,53.7
		"/>
	<path id="Fill-26" class="st10" d="M635.4,15.9c-0.1,4.3-2.7,7.8-5.8,7.8c-3.1-0.1-5.6-3.6-5.6-8c0.1-4.3,2.7-7.8,5.8-7.8
		C633,8,635.5,11.5,635.4,15.9"/>
	<path id="Fill-28" class="st10" d="M677.3,9.6c-0.1,4.3-2.7,7.8-5.8,7.8c-3.1-0.1-5.6-3.6-5.6-8c0.1-4.3,2.7-7.8,5.8-7.8
		C674.9,1.7,677.4,5.3,677.3,9.6"/>
	<g id="Clip-31">
	</g>
	<g>
		<path class="st11" d="M748.1,221.1c15.5-5,32.9-9.9,51.6-14.5l-7.2-36.7c-3.9-22.3-18.1-26.1-18.1-26.1l-99-36.9l-87.1,4
			l-86.7,24.6l-19.7,87.3C575.3,242,670.9,246.1,748.1,221.1z"/>
	</g>
	<g id="Group-77" transform="translate(197.000000, 91.000000)">
		<path id="Stroke-37" class="st12" d="M139,70.1c124,0,63.5,64,226.2,73.7c162.7,9.7,134.7-42.4,114-41.6s-7.9,50,35.9,36.7
			c79.6-24.3,158.7-40.4,264-53.7c102.5-12.9,237.8-7.1,308.9,15.2"/>
		<path id="Fill-39" class="st13" d="M354.5,5.5l-24.4-6.3l-43.7,8.1c0,0,0,34.2-8.6,55.6c-8.6,21.4-33.4,87.7-17.6,111.2
			c15.8,23.5,73.2,12.8,81.8-37.2c8.6-50,18.4-92.3,25.3-105.6c2.1-4.1,4.2-9.8,5.8-15.7L354.5,5.5z"/>
		<path id="Fill-41" class="st4" d="M376.1-30.9c-5.5-14.5-14-24.7-19.2-22.8c-0.3,0.1-0.7,0.3-0.9,0.5l-1.2,0.7L341.8-45L280.2-9.9
			L294.1,27l82.6-28.1C381.8-3,381.6-16.4,376.1-30.9"/>
		<path id="Stroke-43" class="st8" d="M354.5,8.9c0,0-0.9,17.2-17.6,18.9c-16.7,1.7-28.3,13.7-30.2,25.4"/>
		<path id="Fill-45" class="st14" d="M293.7,6.1c3.8,10.2,4,19.5,0.4,20.9c-3.6,1.3-9.6-5.8-13.5-16c-3.8-10.2-4-19.5-0.4-20.9
			C283.8-11.3,289.9-4.1,293.7,6.1"/>
		<path id="Fill-47" class="st14" d="M376.1-30.9c-5.5-14.5-14-24.7-19.2-22.8c-0.3,0.1-0.7,0.3-0.9,0.5l-1.2,0.7
			c4.9,4.6,10.1,13.1,14,23.5c4.3,11.5,5.9,22.3,4.7,28.9l3.2-1.1C381.8-3,381.6-16.4,376.1-30.9"/>
		<path id="Fill-49" class="st13" d="M351.4-50.5c0,0-9.3-31.1-19.6-30.3s-5.1,26.9-5.1,26.9s-14.8-7.2-18.4,6.4
			c0,0-11.1-2.6-14.6,8.3c0,0-12.4-1.3-16,9c-3.7,10.3,2.6,35,9.5,31.2c7-3.8,6.5-18.6,6.5-18.6s5,13.3,13.1,11.3
			c8.1-2,3.4-20.7,3.4-20.7s8,14.6,15.9,9.2c7.9-5.3,2.7-19.9,2.7-19.9L351.4-50.5z"/>
		<path id="Fill-51" class="st13" d="M369.5-9.8c-11.6,2.1-15,17.1-15,17.1l18.6,8.3C376.7,2.5,377.5-11.3,369.5-9.8"/>
		<path id="Stroke-53" class="st8" d="M370.8-9.9c0,0,7.3-0.5,4.2,17.2c-3.1,17.7-11.9,29.5-12.7,37.1"/>
		<path id="Stroke-55" class="st8" d="M375.2,5.8c0,0-14.1,6-12.9,0c1.2-6,8.2-13,9.7-12"/>
		<path id="Stroke-57" class="st8" d="M331.8-80.8c0,0-6.3,0.2-6.2,9.8c0.1,9.6,0.3,17.6,4.7,31.3"/>
		<path id="Stroke-59" class="st8" d="M324-54.9c0,0-12.9-5.4-15.8,7.5c-2.9,12.8,2.6,25.3,7.9,28.1c5.3,2.7,12.2,5.1,14.2-7.6"/>
		<path id="Stroke-61" class="st8" d="M306.3-47.7c0,0-10.2-1-12.6,8.6s-1.5,23.6,4.5,29.2c5.9,5.6,10.7,5.6,13.1-2.9"/>
		<path id="Stroke-63" class="st8" d="M291.7-39.2c0,0-12.2,0-14.5,10.8s3.5,35.1,10.7,29c0,0,4.6-2.9,5.2-10.6"/>
		<path id="Stroke-65" class="st8" d="M278.6-8.5c0,0,2.7-3.8,6.3-2.7c3.7,1.1,2.8,10.3,0,10.4"/>
		<path id="Stroke-67" class="st8" d="M294.8-15.1c0,0,3-4.5,9-3.7C309.7-18,305.4-8.7,303-8"/>
		<path id="Stroke-69" class="st8" d="M312.4-24.1c0,0,4.8-5.9,8.8-3.7c4,2.2,3.4,7.7,1.4,9"/>
		<path id="Stroke-71" class="st15" d="M286.4,7.7c0,0-8.2-7.7-11.4-4.1C271.6,7.3,281.9,9.9,286.4,7.7z"/>
		<path id="Stroke-73" class="st15" d="M287.4,8.5c0,0-1.3,11.4-5.5,9.9C277.6,17,285.4,8.8,287.4,8.5z"/>
		<path id="Stroke-75" class="st15" d="M0-18.8C167.5-64.7,204.8,90.8,287.4,8.5"/>
	</g>
</g>
<path id="Stroke-18" class="st8" d="M379.4,197.2c0,0,47.7,17.2,92.8-5.2"/>
</svg>
