<?xml version="1.0" encoding="UTF-8"?>
<svg width="440px" height="438px" viewBox="0 0 440 438" version="1.1" xmlns="http://www.w3.org/2000/svg" xmlns:xlink="http://www.w3.org/1999/xlink">
    <!-- Generator: Sketch 55.2 (78181) - https://sketchapp.com -->
    <title>Group 2</title>
    <desc>Created with Sketch.</desc>
    <g id="Page-1" stroke="none" stroke-width="1" fill="none" fill-rule="evenodd">
        <g id="Process" transform="translate(-184.000000, -3156.000000)">
            <g id="Group-2" transform="translate(184.000000, 3156.000000)">
                <polygon id="Fill-1" fill="#00233C" points="163 206.31096 185.985377 243.363351 200.838466 248 218 240.465445 189.083188 197"></polygon>
                <polygon id="Fill-2" fill="#BFD2FE" points="167 208.335781 186.944584 241.50789 191.41951 250 213 238.913253 187.910597 200"></polygon>
                <path d="M211.438653,161.834769 C211.438653,153.503177 214.500638,145.882716 219.562899,140 C212.476562,146.176331 208,155.215932 208,165.29568 C208,183.910052 223.24887,199 242.061605,199 C252.454141,199 261.752889,194.389616 268,187.129407 C261.999172,192.36034 254.127419,195.539089 245.501294,195.539089 C226.688559,195.539089 211.438653,180.449141 211.438653,161.834769" id="Fill-3" fill="#001624"></path>
                <path d="M243.354437,187.334862 C229.479813,186.758244 218.341754,175.768886 217.777881,162.088643 C218.354331,149.241292 229.073154,138.999753 242.213066,138.999753 C255.725051,138.999753 266.678646,149.826313 266.678646,163.182012 C266.678646,176.15855 256.337136,186.74564 243.354437,187.334862 M279,161.000525 C279,142.222094 263.55324,127 244.5,127 C233.974026,127 224.555883,131.650758 218.227512,138.974546 C213.1013,144.907727 210,152.594921 210,161.000525 C210,179.777906 225.445712,195 244.5,195 C253.236884,195 261.209709,191.793414 267.287587,186.516674 C274.46596,180.285205 279,171.166443 279,161.000525" id="Fill-5" fill="#00233C"></path>
                <path d="M392.543122,149.641119 C389.05892,140.944014 381.646789,133.614294 370.602546,131.739586 C344.656961,126.876968 338.639552,147.488371 338,150.024983 C339.475968,151.031328 340.64466,151.376806 340.64466,151.376806 L348.613014,160.770053 L362.960218,197.120902 L373.859676,201 C397.950145,187.638433 399.164668,166.17423 392.543122,149.641119" id="Fill-7" fill="#00233C"></path>
                <path d="M332,223.095215 C332,223.095215 304.430271,193.654292 288.016921,191.472705 C271.604611,189.292168 267.501534,195.179723 269.44548,198.451053 C271.388386,201.723433 277.86786,206.4845 284.993929,207.047219 L305.419916,229.246282 L313.930658,234 L332,223.095215 Z" id="Fill-9" fill="#8DAEFF"></path>
                <path d="M279.844391,192 C279.844391,192 280.85745,196.699448 277.713878,198.504089 C274.570306,200.308729 270.686909,196.756997 272.434347,194.744964" id="Stroke-11" stroke="#000000"></path>
                <path d="M255.931244,202 C255.931244,202 247.406863,205.409537 249.264929,213.721839 C249.264929,213.721839 250.030882,217.617712 255.931244,219.447953 C255.931244,219.447953 252.981063,232.696203 265.001682,234.957821 C265.001682,234.957821 266.641957,244.759203 278.33431,245.297387 C278.33431,245.297387 281.176121,252.513619 292.104626,249.067788 C292.104626,249.067788 302.26823,242.605429 293.306161,235.711694 L291.666938,234.957821 C291.666938,234.957821 293.306161,227.203406 284.891202,227.203406 C284.891202,227.203406 286.639847,217.474611 278.224888,217.654006 C278.224888,217.654006 281.612756,210.401481 276.14903,209.10735 C270.685304,207.815293 260.5217,208.461322 260.5217,208.461322 L255.931244,202 Z" id="Fill-13" fill="#8DAEFF"></path>
                <path d="M270.354488,195 C270.354488,195 266.804502,198.1002 271.198825,201.494277 C275.591163,204.88732 283.046331,211.668231 295,205.506118" id="Stroke-15" stroke="#000000"></path>
                <path d="M256.363765,208.62664 C256.363765,208.62664 274.977429,207.308028 278.762907,210.202646 C282.547346,213.096209 278.232067,223.907777 257.65918,220.254693 C257.65918,220.254693 246.29028,217.118505 251.254824,207" id="Stroke-17" stroke="#000000"></path>
                <path d="M278.193211,216.019738 C278.193211,216.019738 285.595625,215.174668 284.961462,224.543514 C284.327299,233.912361 265.800298,236.937883 259.093891,230.805297 C252.390628,224.671651 255.93775,218.092173 255.93775,218.092173" id="Stroke-19" stroke="#000000"></path>
                <path d="M267,234.051293 C267,234.051293 268.724681,243.639297 279.506172,243.994713 C290.288654,244.351155 297.9798,226.569076 285.756282,226" id="Stroke-21" stroke="#000000"></path>
                <path d="M279,244.461163 C279,244.461163 283.989013,252.07542 292.563499,247.579752 C301.135955,243.084083 295.09251,233.511546 292.563499,234.019442" id="Stroke-23" stroke="#000000"></path>
                <path d="M340.174907,217 L341.92068,206.703343 C341.92068,206.703343 326.500739,206.267727 328.537474,183.064908 C328.537474,183.064908 324.028087,180.454355 325.191935,177.263679 C326.355784,174.073004 334.21071,163.051717 334.21071,163.051717 L337.848261,150 C337.848261,150 348.320796,154.639936 358.213507,155.654627 C358.213507,155.654627 356.176772,166.967022 364.032749,169.287514 L366.797414,181.759108 C366.797414,181.759108 368.543186,166.822515 376.397062,166.676961 C384.253038,166.532454 382.072398,185.095338 369.705984,188.140459 C369.705984,188.140459 368.688142,198.0015 374.071466,201.192176 L377.126043,216.129816 L340.174907,217 Z" id="Fill-25" fill="#8DAEFF"></path>
                <path d="M334,191.174707 C336.171906,193.096231 337.286837,195.254471 337.866405,197 C338.333006,194.678117 339.24165,191.728419 341,189 C337.277014,190.840216 334,191.174707 334,191.174707" id="Fill-27" fill="#00233C"></path>
                <path d="M340.820825,189.345796 C339.237979,192.142763 338.420029,195.166568 338,197.54573 C338.579198,199.535575 338.560628,201 338.560628,201 C346,196.068645 346,185 346,185 C344.400354,186.98246 342.557533,188.3667 340.820825,189.345796" id="Fill-29" fill="#5F8CD6"></path>
                <path d="M344.865636,166.444233 C344.419471,168.639898 342.997924,170.220034 341.693229,169.974937 C340.384672,169.729839 339.68935,167.75142 340.134549,165.555755 C340.580714,163.361018 342.00033,161.779953 343.307921,162.025051 C344.613582,162.270148 345.310835,164.248568 344.865636,166.444233" id="Fill-31" fill="#000000"></path>
                <path d="M369,182.981786 C369,182.981786 371.902399,183.436253 372.290007,179.804889 C372.677615,176.173525 374.031447,169.365263 377,173.072008" id="Stroke-33" stroke="#000000"></path>
                <path d="M266.566091,285.939676 L263.627709,291.070809 C263.627709,291.070809 222.882288,275.02038 213.740189,259.733156 C213.740189,259.733156 215.772116,244.739229 212.143152,235.420982 C208.515235,226.103786 208.07825,211.544024 200.677804,215.474634 C193.276309,219.405244 196.469337,242.263544 196.469337,242.263544 C196.469337,242.263544 187.617514,244.301911 183.988549,238.040688 C180.359585,231.780516 168.024459,213 168.024459,213 C168.024459,213 162.946214,222.60734 165.267368,231.489321 C165.267368,231.489321 160.622964,236.148444 161.784065,243.427274 C161.784065,243.427274 158.445376,248.668788 160.042414,256.384936 C160.042414,256.384936 158.017823,260.606741 159.611717,265.703184 C161.202467,270.798575 188.778615,325.539074 247.119746,348.251251 C247.119746,348.251251 280.499303,363.100105 297.478832,333.69254 L308,317.677854 L266.566091,285.939676 Z" id="Fill-35" fill="#8DAEFF"></path>
                <path d="M208,223.533338 C208,223.533338 204.597545,225.704377 202.157303,224.763628 C199.717061,223.822879 201.345669,216.077381 205.080253,217.091299" id="Stroke-37" stroke="#000000"></path>
                <path d="M429.849422,430.738173 L429.849422,313.333362 C429.849422,313.333362 452.754947,244.339184 429.749115,232.164048 C406.742238,219.987866 366.173274,200.275095 317.552582,221.147503 C317.552582,221.147503 305.372594,226.365867 293.50711,240.570366 C281.640581,254.775911 266,285.503136 266,285.503136 L307.476951,317.10218 L297.151598,333.045087 L297.151598,437 L430.082427,437 L429.849422,430.738173 Z" id="Fill-39" fill="#8DAEFF"></path>
                <path d="M428.485352,430.693076 L428.485352,313.312471 C428.485352,313.312471 451.860009,244.332517 428.906479,232.159891 C405.953991,219.98622 365.742575,200.277512 317.235782,221.145617 C317.235782,221.145617 305.214887,226.362905 293.377453,240.564475 C281.538977,254.767092 266,285.487982 266,285.487982 L307.413297,317.080512 L297.143625,333.020132 L297.143625,438 L429.7602,438 L428.485352,430.693076 Z" id="Fill-41" fill="#FFFFFF" opacity="0.517787388"></path>
                <path d="M271.98854,219 C271.98854,219 269.228866,216.437516 270.211556,213.79775 C271.195193,211.156968 278.425256,209.566601 277.9803,212.828684" id="Stroke-43" stroke="#000000"></path>
                <path d="M279.541995,232 C279.541995,232 273.858935,229.392669 275.206751,223.43806 C276.552715,217.48345 282.903661,220.460224 283,223.43806" id="Stroke-45" stroke="#000000"></path>
                <path d="M289.815688,239 C289.815688,239 284.948254,237.696008 286.208346,233.715454 C287.467467,229.733892 291,231.306145 291,231.306145" id="Stroke-47" stroke="#000000"></path>
                <path d="M204,215 C204,215 198.015262,215.861029 197.028145,221.241926 C196.03994,226.622823 194.999494,243.11099 197.861807,249" id="Stroke-49" stroke="#000000"></path>
                <path d="M183,238.660664 L167.729653,214 C167.729653,214 163.564739,219.591614 165.092375,232.208722 C165.092375,232.208722 161.100875,237.31582 161.43066,244.583572 C161.43066,244.583572 158.566843,250.132739 160.093477,256.726516 C160.093477,256.726516 156.881832,261.582038 161.466746,270" id="Stroke-51" stroke="#000000"></path>
                <path d="M261,341 C261,341 266.590492,327.47959 285,335.592369" id="Stroke-53" stroke="#000000"></path>
                <path d="M234,342.546311 C234,342.546311 263.673089,362.278001 286.297867,344.728135 C286.297867,344.728135 291.735635,340.322609 295.240752,334.285949 L306,317.317135 L265.283632,286" id="Stroke-55" stroke="#000000"></path>
                <path d="M335,215.242433 C335,215.242433 357.671441,207.465489 391,216" id="Stroke-57" stroke="#000000"></path>
                <path d="M335,277 L309,317" id="Stroke-59" stroke="#000000"></path>
                <path d="M428.5,276 L428.5,438" id="Stroke-61" stroke="#000000"></path>
                <path d="M307,231.183051 L285.265344,207.810185 C285.265344,207.810185 279.598907,208.075738 274.524788,203.754182 C274.524788,203.754182 264.009016,198.356715 271.340547,193.604161 L266.251514,186.882091 L256.09582,184 L253,195.601077 L261.521494,207.810185 C261.521494,207.810185 275.668942,206.69107 279.770424,209.602667 C279.770424,209.602667 282.899268,212.300347 278.434512,216.538655 C278.434512,216.538655 283.595987,216.970705 284.758251,218.901232 C285.920515,220.830705 286.808992,223.184852 286.58634,226.96055 C286.58634,226.96055 289.738622,226.470542 291.840498,228.68559 C293.941309,230.900638 292.853617,234.982986 292.853617,234.982986 C292.853617,234.982986 295.240999,233.87757 296.971079,236.657444 L298.921679,239 L307,231.183051 Z" id="Fill-63" fill="#00233C"></path>
                <path d="M245,135 C230.087215,135 218,146.640724 218,161.000518 C218,161.359953 218.011637,161.717316 218.028562,162.07468 C218.611448,149.404335 229.429221,139.303898 242.691729,139.303898 C256.329781,139.303898 267.385574,149.980259 267.385574,163.151949 C267.385574,175.949702 256.947577,186.390928 243.843749,186.972032 C244.227755,186.98757 244.611762,187 245,187 C259.912785,187 272,175.359276 272,161.000518 C272,146.640724 259.912785,135 245,135" id="Fill-65" fill="#001624"></path>
                <polygon id="Fill-67" fill="#B8CDFB" points="256 104 336 104 336 0 256 0"></polygon>
                <polygon id="Fill-69" fill="#5F8CD6" points="278 68 315 68 315 31 278 31"></polygon>
                <path d="M296,57.9989719 C296,65.7315121 289.730714,72 281.999486,72 C274.26723,72 268,65.7315121 268,57.9989719 C268,50.2674598 274.26723,44 281.999486,44 C289.730714,44 296,50.2674598 296,57.9989719" id="Fill-70" fill="#FFFFFF"></path>
                <polygon id="Fill-71" fill="#00233C" points="316 68 287 68 301.500518 49"></polygon>
                <g id="Group" transform="translate(122.000000, 69.000000)">
                    <polygon id="Fill-72" fill="#B8CDFB" points="1.70530257e-13 103.44256 79.9646753 103.44256 79.9646753 0 1.70530257e-13 0"></polygon>
                    <polygon id="Fill-73" fill="#5F8CD6" points="23.6758442 66.55792 59.2083117 66.55792 59.2083117 30.98992 23.6758442 30.98992"></polygon>
                    <path d="M41.0082078,57.67424 C41.0082078,65.49504 34.6736623,71.83488 26.8606753,71.83488 C19.0466494,71.83488 12.7141818,65.49504 12.7141818,57.67424 C12.7141818,49.8524 19.0466494,43.51152 26.8606753,43.51152 C34.6736623,43.51152 41.0082078,49.8524 41.0082078,57.67424" id="Fill-74" fill="#FFFFFF"></path>
                    <polygon id="Fill-75" fill="#00233C" points="60.5267532 66.55792 31.4327273 66.55792 45.9792208 47.73912"></polygon>
                </g>
                <polygon id="Fill-76" fill="#B8CDFB" points="0 183 80 183 80 79 0 79"></polygon>
                <polygon id="Fill-77" fill="#5F8CD6" points="23 148 60 148 60 111 23 111"></polygon>
                <path d="M41,136.998972 C41,144.731512 34.7312819,151 26.9984578,151 C19.2666618,151 13,144.731512 13,136.998972 C13,129.26746 19.2666618,123 26.9984578,123 C34.7312819,123 41,129.26746 41,136.998972" id="Fill-78" fill="#FFFFFF"></path>
                <polygon id="Fill-79" fill="#00233C" points="61 148 32 148 46.4994822 129"></polygon>
                <path d="M158,214.725595 C158,214.725595 138.182315,196.763907 116.814055,207.476542 C65.4683498,233.217891 59.400828,199.436785 56,192" id="Stroke-80" stroke="#001624" stroke-dasharray="2,2"></path>
                <path d="M85,110 C85,110 100.268148,110.856028 99.3892794,124.061625 C98.5930306,135.999509 111.947496,134.21422 116,133.401735" id="Stroke-82" stroke="#001624" stroke-dasharray="2,2"></path>
                <path d="M207,93.9713757 C207,93.9713757 219.868039,95.143467 223.472829,82.4871756 C226.971545,70.2042016 229.818164,63.4844898 251,64.0309096" id="Stroke-84" stroke="#001624" stroke-dasharray="2,2"></path>
                <path d="M337,150 L333.25561,162.644912 C333.25561,162.644912 322.463313,177.572365 324.186359,180.999943 C325.910417,184.427522 327.592005,183.980914 327.592005,183.980914" id="Stroke-86" stroke="#000000"></path>
            </g>
        </g>
    </g>
</svg>