<?xml version="1.0" encoding="utf-8"?>
<!-- Generator: Adobe Illustrator 24.1.0, SVG Export Plug-In . SVG Version: 6.00 Build 0)  -->
<svg version="1.1" id="Layer_1" xmlns="http://www.w3.org/2000/svg" xmlns:xlink="http://www.w3.org/1999/xlink" x="0px" y="0px"
	 viewBox="0 0 671 498" style="enable-background:new 0 0 671 498;" xml:space="preserve">
<style type="text/css">
	.st0{fill-rule:evenodd;clip-rule:evenodd;fill:#BFDDFF;}
	.st1{fill-rule:evenodd;clip-rule:evenodd;fill:#F1F5FF;}
	.st2{fill:none;stroke:#8DAEFF;stroke-width:3;}
	.st3{fill-rule:evenodd;clip-rule:evenodd;fill:#8DAEFF;}
	.st4{fill-rule:evenodd;clip-rule:evenodd;fill:#FFFFFF;}
	.st5{fill-rule:evenodd;clip-rule:evenodd;fill:#EBECED;}
	.st6{fill:none;stroke:#8DAEFF;}
	.st7{fill-rule:evenodd;clip-rule:evenodd;fill:#1C033C;}
	.st8{fill-rule:evenodd;clip-rule:evenodd;fill:#527DC5;}
	.st9{fill-rule:evenodd;clip-rule:evenodd;fill:#3463A3;}
	.st10{fill-rule:evenodd;clip-rule:evenodd;fill:#260752;}
	.st11{fill-rule:evenodd;clip-rule:evenodd;fill:#668CDF;}
	.st12{opacity:0.4224;fill-rule:evenodd;clip-rule:evenodd;fill:#FFFFFF;enable-background:new    ;}
	.st13{fill-rule:evenodd;clip-rule:evenodd;fill:#00233C;}
	.st14{fill-rule:evenodd;clip-rule:evenodd;fill:#0F0F0F;}
	.st15{fill:none;stroke:#0F0F0F;}
	.st16{fill-rule:evenodd;clip-rule:evenodd;fill:#4785FF;}
	.st17{fill:none;stroke:#0F0F0F;stroke-width:10;}
	.st18{fill:none;stroke:#006FC5;stroke-dasharray:9;}
	.st19{fill-rule:evenodd;clip-rule:evenodd;fill:#39629E;}
	.st20{fill:none;stroke:#000000;}
	.st21{fill-rule:evenodd;clip-rule:evenodd;fill:#5D8DD5;}
</style>
<desc>Created with Sketch.</desc>
<g id="Group-3" transform="translate(212.000000, 0.000000)">
	<path id="Fill-5" class="st0" d="M0,10.9h205.7v142.8c0,0.1-0.5,0.4-0.5,0.4H0c0,0,0-0.3,0-0.4V10.9z"/>
	<polygon id="Fill-7" class="st1" points="0,155 23.6,155 23.6,10.9 0,10.9 	"/>
	<polygon id="Stroke-9" class="st2" points="38.5,131.9 197.1,131.9 197.1,40.3 38.5,40.3 	"/>
	<path id="Fill-10" class="st3" d="M0,10.8V0h205.7v10.8c0,0-0.5,0.1-0.5,0.1L0,10.8C0,10.9,0,10.8,0,10.8"/>
	<path id="Fill-11" class="st3" d="M45.7,140.6c0,2.5,2,4.4,4.4,4.4s4.4-2,4.4-4.4c0-2.5-2-4.4-4.4-4.4S45.7,138.1,45.7,140.6"/>
	<path id="Fill-12" class="st3" d="M72.3,140.6c0,2.5,2,4.4,4.4,4.4c2.5,0,4.4-2,4.4-4.4c0-2.5-2-4.4-4.4-4.4
		C74.3,136.1,72.3,138.1,72.3,140.6"/>
	<path id="Fill-13" class="st3" d="M99,140.6c0,2.5,2,4.4,4.4,4.4c2.5,0,4.4-2,4.4-4.4c0-2.5-2-4.4-4.4-4.4
		C101,136.1,99,138.1,99,140.6"/>
	<path id="Fill-14" class="st4" d="M194.4,5.5c0,1.2,0.9,2.1,2.1,2.1c1.2,0,2.1-0.9,2.1-2.1s-0.9-2.1-2.1-2.1
		C195.3,3.4,194.4,4.3,194.4,5.5"/>
	<path id="Fill-15" class="st4" d="M186.3,5.5c0,1.2,0.9,2.1,2.1,2.1c1.2,0,2.1-0.9,2.1-2.1s-0.9-2.1-2.1-2.1
		C187.2,3.4,186.3,4.3,186.3,5.5"/>
	<path id="Fill-16" class="st4" d="M178.2,5.5c0,1.2,0.9,2.1,2.1,2.1c1.2,0,2.1-0.9,2.1-2.1s-0.9-2.1-2.1-2.1
		C179.2,3.4,178.2,4.3,178.2,5.5"/>
	<polygon id="Fill-56" class="st3" points="102.4,164 251,164 251,81.6 102.4,81.6 	"/>
	<polygon id="Fill-57" class="st5" points="102.4,174 251,174 251,92.4 102.4,92.4 	"/>
	<path id="Fill-58" class="st4" d="M240.4,87.1c0,1.2,0.9,2.1,2.1,2.1c1.2,0,2.1-0.9,2.1-2.1c0-1.2-0.9-2.1-2.1-2.1
		C241.4,85,240.4,85.9,240.4,87.1"/>
	<path id="Fill-59" class="st4" d="M232.4,87.1c0,1.2,0.9,2.1,2.1,2.1c1.2,0,2.1-0.9,2.1-2.1c0-1.2-0.9-2.1-2.1-2.1
		C233.3,85,232.4,85.9,232.4,87.1"/>
	<path id="Fill-60" class="st4" d="M224.3,87.1c0,1.2,0.9,2.1,2.1,2.1c1.2,0,2.1-0.9,2.1-2.1c0-1.2-0.9-2.1-2.1-2.1
		C225.2,85,224.3,85.9,224.3,87.1"/>
	<polygon id="Stroke-61" class="st6" points="115.5,162.7 238.8,162.7 238.8,101 115.5,101 	"/>
	<path id="Fill-62" class="st4" d="M112,100.7c0,2.3,1.9,4.2,4.2,4.2c2.3,0,4.2-1.9,4.2-4.2c0-2.3-1.9-4.2-4.2-4.2
		C113.9,96.5,112,98.4,112,100.7"/>
	<path id="Stroke-63" class="st6" d="M112,100.7c0,2.3,1.9,4.2,4.2,4.2c2.3,0,4.2-1.9,4.2-4.2c0-2.3-1.9-4.2-4.2-4.2
		C113.9,96.5,112,98.4,112,100.7z"/>
	<path id="Fill-64" class="st4" d="M173.4,100.7c0,2.3,1.9,4.2,4.2,4.2c2.3,0,4.2-1.9,4.2-4.2c0-2.3-1.9-4.2-4.2-4.2
		C175.3,96.5,173.4,98.4,173.4,100.7"/>
	<path id="Stroke-65" class="st6" d="M173.4,100.7c0,2.3,1.9,4.2,4.2,4.2c2.3,0,4.2-1.9,4.2-4.2c0-2.3-1.9-4.2-4.2-4.2
		C175.3,96.5,173.4,98.4,173.4,100.7z"/>
	<path id="Fill-66" class="st4" d="M234,100.7c0,2.3,1.9,4.2,4.2,4.2c2.3,0,4.2-1.9,4.2-4.2c0-2.3-1.9-4.2-4.2-4.2
		C235.9,96.5,234,98.4,234,100.7"/>
	<path id="Stroke-67" class="st6" d="M234,100.7c0,2.3,1.9,4.2,4.2,4.2c2.3,0,4.2-1.9,4.2-4.2c0-2.3-1.9-4.2-4.2-4.2
		C235.9,96.5,234,98.4,234,100.7z"/>
	<path id="Fill-68" class="st4" d="M112,162.1c0,2.3,1.9,4.2,4.2,4.2c2.3,0,4.2-1.9,4.2-4.2s-1.9-4.2-4.2-4.2
		C113.9,157.9,112,159.8,112,162.1"/>
	<path id="Stroke-69" class="st6" d="M112,162.1c0,2.3,1.9,4.2,4.2,4.2c2.3,0,4.2-1.9,4.2-4.2s-1.9-4.2-4.2-4.2
		C113.9,157.9,112,159.8,112,162.1z"/>
	<path id="Fill-70" class="st4" d="M173.4,162.1c0,2.3,1.9,4.2,4.2,4.2c2.3,0,4.2-1.9,4.2-4.2s-1.9-4.2-4.2-4.2
		C175.3,157.9,173.4,159.8,173.4,162.1"/>
	<path id="Stroke-71" class="st6" d="M173.4,162.1c0,2.3,1.9,4.2,4.2,4.2c2.3,0,4.2-1.9,4.2-4.2s-1.9-4.2-4.2-4.2
		C175.3,157.9,173.4,159.8,173.4,162.1z"/>
	<path id="Fill-72" class="st4" d="M234,162.1c0,2.3,1.9,4.2,4.2,4.2c2.3,0,4.2-1.9,4.2-4.2s-1.9-4.2-4.2-4.2
		C235.9,157.9,234,159.8,234,162.1"/>
	<path id="Stroke-73" class="st6" d="M234,162.1c0,2.3,1.9,4.2,4.2,4.2c2.3,0,4.2-1.9,4.2-4.2s-1.9-4.2-4.2-4.2
		C235.9,157.9,234,159.8,234,162.1z"/>
	<path id="Fill-74" class="st4" d="M112,131.4c0,2.3,1.9,4.2,4.2,4.2c2.3,0,4.2-1.9,4.2-4.2s-1.9-4.2-4.2-4.2
		C113.9,127.2,112,129.1,112,131.4"/>
	<path id="Stroke-75" class="st6" d="M112,131.4c0,2.3,1.9,4.2,4.2,4.2c2.3,0,4.2-1.9,4.2-4.2s-1.9-4.2-4.2-4.2
		C113.9,127.2,112,129.1,112,131.4z"/>
	<path id="Fill-76" class="st4" d="M234,131.4c0,2.3,1.9,4.2,4.2,4.2c2.3,0,4.2-1.9,4.2-4.2s-1.9-4.2-4.2-4.2
		C235.9,127.2,234,129.1,234,131.4"/>
	<path id="Stroke-77" class="st6" d="M234,131.4c0,2.3,1.9,4.2,4.2,4.2c2.3,0,4.2-1.9,4.2-4.2s-1.9-4.2-4.2-4.2
		C235.9,127.2,234,129.1,234,131.4z"/>
	<polygon id="Stroke-78" class="st6" points="202.5,158.1 229.7,158.1 229.7,104.7 202.5,104.7 	"/>
	<path id="Stroke-79" class="st6" d="M216.1,104.2v54.4"/>
	<path id="Stroke-80" class="st6" d="M230.2,119.2H203"/>
	<path id="Stroke-81" class="st6" d="M230.2,131.9H203"/>
	<path id="Stroke-82" class="st6" d="M230.2,145.5H203"/>
	<polygon id="Fill-83" class="st3" points="219.7,111.9 224.7,116.9 224.7,106.9 	"/>
	<path id="Fill-84" class="st3" d="M212.1,106.9l-5,5l5,5V106.9z M211.2,109.1v5.6l-2.8-2.8L211.2,109.1z"/>
	<polygon id="Fill-85" class="st3" points="205.7,128.7 212.9,128.7 212.9,122.3 205.7,122.3 	"/>
	<polygon id="Stroke-86" class="st6" points="209.3,141.8 212.5,138.5 209.3,135.3 206.1,138.5 	"/>
	<path id="Stroke-87" class="st6" d="M219.8,125.3c0,2,1.6,3.5,3.5,3.5c2,0,3.5-1.6,3.5-3.5c0-2-1.6-3.5-3.5-3.5
		C221.4,121.8,219.8,123.4,219.8,125.3z"/>
	<path id="Stroke-88" class="st6" d="M206.9,151.2c0,2,1.6,3.5,3.5,3.5c2,0,3.5-1.6,3.5-3.5c0-2-1.6-3.5-3.5-3.5
		C208.5,147.6,206.9,149.2,206.9,151.2z"/>
	<path id="Stroke-89" class="st6" d="M227.4,135.5h-8.2"/>
	<path id="Stroke-90" class="st6" d="M223.4,135v7.2"/>
	<path id="Stroke-91" class="st6" d="M207.8,153.3l-2.6,2.5"/>
	<path id="Stroke-92" class="st6" d="M219.7,148.8l7.6,6.6"/>
	<polygon id="Fill-93" class="st3" points="189.9,155.9 123.6,155.9 147.9,126 162.7,142.8 171.6,133.7 	"/>
	<path id="Fill-94" class="st3" d="M162.6,122.9c0,3.3,2.7,6,6,6c3.3,0,6-2.7,6-6c0-3.3-2.7-6-6-6
		C165.2,116.9,162.6,119.6,162.6,122.9"/>
	<polygon id="Fill-104" class="st3" points="160.4,32.6 196.6,32.6 196.6,19 160.4,19 	"/>
	<polygon id="Fill-105" class="st3" points="120.5,27.2 146.8,27.2 146.8,24.5 120.5,24.5 	"/>
	<polygon id="Fill-106" class="st3" points="77.9,27.2 105.1,27.2 105.1,24.5 77.9,24.5 	"/>
	<polygon id="Fill-107" class="st3" points="37.2,27.2 63.4,27.2 63.4,24.5 37.2,24.5 	"/>
	<polygon id="Fill-108" class="st3" points="6.3,20.8 18.1,20.8 18.1,19 6.3,19 	"/>
	<polygon id="Fill-109" class="st3" points="6.3,23.6 18.1,23.6 18.1,21.7 6.3,21.7 	"/>
	<polygon id="Fill-110" class="st3" points="6.3,27.2 18.1,27.2 18.1,25.4 6.3,25.4 	"/>
</g>
<polygon id="Fill-17" class="st7" points="318.3,257 405,257 380.7,191 294,191 "/>
<polygon id="Fill-18" class="st8" points="321.9,254 400,254 378.1,195 300,195 "/>
<polygon id="Fill-21" class="st9" points="437,287 473,287 473,279 437,279 "/>
<polygon id="Fill-22" class="st3" points="246,279 487,279 487,262 246,262 "/>
<polygon id="Fill-23" class="st10" points="318,262 405,262 405,257 318,257 "/>
<polygon id="Fill-24" class="st3" points="315,361 351,376 351,279 315,279 "/>
<path class="st3" d="M518.7,177.4c-29.5-0.7-47.1-4.9-66.8,45.7l-10.5,21.4c0,0-54.3-40.4-60.8-39.6c-6.4,0.8,0,8.5,0,8.5
	s-29,10.1-28.6,18.2c0,0,0.6,3,5.2,2.2c0,0-6.2,6.9,3,6.7c0,0-5.4,6.9,5.2,4c0,0-2.4,3.6,2,3.4c4.4-0.2,12.9-3.4,12.9-3.4l48.5,38.2
	c0,0,16.7,16.6,33.2,1l6.4-6.9l-6,34c0,0-65.4,8.9-70.7,30.7C386.6,363.3,405,396,405,396l42,4l-1.8-38.1c-0.1-0.1-0.2-0.3-0.3-0.4
	c-5.8-6.1-2.4-5.3-2.4-5.3l38.8,5.1c73.7,8.9,71.7-31.1,71.7-31.1l5.1-107.2C558,223.1,559.3,178.3,518.7,177.4z"/>
<polygon class="st11" points="424.1,354.5 428.6,398.2 447,400 442.5,356.2 "/>
<path id="Fill-29" class="st12" d="M462.3,311.4l6.1-33.9l11.1-19.1l-33.5-23l17.9-37.5c0,0,14-20.2,33.5-19.8l27.7,0.7
	c0,0,31.1,1.7,32.9,42l-5.1,111.6c0,0-0.3,4.3-1.8,7.6L462.3,311.4z"/>
<path id="Fill-32" class="st3" d="M490.5,140.3l1.2-5.8c0,0,0.3-1.4,1-3.5c0.8,1.3,2.7,2.7,6.1,3.6c0,0-1.8,6.1,3.6,10.2v5.5
	c0,0,2.7-10.2,6.8-7.5c4,2.6,2.5,13.2-4.2,13.4c0,0,1.1,11.8,16.2,10.8L525,179c0,0-12.1-1.2-27.5-0.2l3.3-8c0,0-11.9-0.8-12.2-16.8
	C484.1,152.1,490.5,140.3,490.5,140.3"/>
<path id="Fill-33" class="st13" d="M505.1,156.3c6.6-0.2,7.8-10.7,3.8-13.3c-4-2.6-7.1,7.4-7.1,7.4V145c-4.5-4-3.1-10-3.1-10
	c-3.3-0.8-4.9-2.3-5.7-3.5c2.2-6.2,8.9-18.2,26.2-11.4c22.9,9.1,12.8,39.6,2,46.9C506.3,167.9,505.1,156.3,505.1,156.3"/>
<path id="Fill-34" class="st14" d="M492,143.5c0,1.4,0.7,2.5,1.5,2.5c0.8,0,1.5-1.1,1.5-2.5s-0.7-2.5-1.5-2.5
	C492.7,141,492,142.1,492,143.5"/>
<path id="Stroke-35" class="st15" d="M504,152.9c0,0,3.3,1.1,2-3.9c-1.2-5,4.7-2.8,2.4,0"/>
<path id="Stroke-36" class="st15" d="M490,158.7c0,0,2.7,1.5,6-2.7"/>
<path id="Stroke-37" class="st15" d="M491,140c0,0-7.3,12.2-2.2,14"/>
<polygon id="Fill-38" class="st3" points="468.5,276.9 498,226 464,302 "/>
<path id="Stroke-39" class="st15" d="M480,258l-33-23"/>
<path id="Stroke-40" class="st15" d="M463,311l89,29"/>
<path id="Stroke-41" class="st15" d="M381,214c0,0,6.5-3.2,16,2"/>
<path id="Stroke-42" class="st15" d="M357,235l23-15"/>
<path id="Stroke-43" class="st15" d="M360,241l20-12"/>
<path id="Stroke-44" class="st15" d="M365,245l14-7"/>
<path id="Stroke-45" class="st15" d="M355.1,226c0,0,2.9,1.8,1.5,4.8c-1.4,3-4,2.3-4.6,1.4"/>
<path id="Stroke-46" class="st15" d="M358.2,233c0,0,3,0.1,2.8,3.7s-3.2,3.4-5,3.3"/>
<path id="Stroke-47" class="st15" d="M361.6,240c0,0,2.8,0,3.4,2.5c0.5,2.6-4,2.6-5,2.3"/>
<path id="Stroke-48" class="st15" d="M366.4,245c0,0,2.9-0.5,2.6,2.1c-0.3,2.6-2.6,1.8-3,1.3"/>
<path id="Stroke-49" class="st15" d="M459,280c0,0-11.7-13.5-25,0"/>
<path id="Stroke-51" class="st15" d="M526,179c0,0-20.6-1.6-28-0.7"/>
<path id="Stroke-52" class="st15" d="M499,226l-30.7,50.7c0,0-8.4,12.7-19,13.3c0,0-11.1,0.1-21.9-8.4c-10.8-8.5-47.3-37-47.3-37"/>
<polygon id="Fill-53" class="st11" points="315,287 351,287 351,279 315,279 "/>
<polygon id="Fill-54" class="st7" points="356,287 393,287 393,279 356,279 "/>
<polygon id="Fill-55" class="st8" points="354,287 365,287 365,279 354,279 "/>
<polygon id="Fill-95" class="st16" points="501.4,170.6 507,166 500,174 "/>
<path id="Stroke-96" class="st15" d="M441,245l-5,10"/>
<polygon id="Fill-101" class="st14" points="489,400 504,400 504,371 489,371 "/>
<polygon class="st3" points="491,400 491,355.9 452.2,353.2 442.5,356.2 461.4,400 "/>
<path id="Stroke-102" class="st17" d="M491,375c0,0-13.4-0.3-21,10"/>
<path id="Fill-103" class="st7" d="M474,387.9c0-4.4-3.6-7.9-8-7.9h-10c-4.4,0-8,3.5-8,7.9v0.1c0,4.4,3.6,7.9,8,7.9h10
	c4.4,0,8-3.5,8-7.9V387.9z"/>
<path id="Stroke-114" class="st15" d="M451,358c0,0-24-3.6-35-7"/>
<path id="Fill-115" class="st7" d="M559,359.1c0-4.5-3.6-8.1-8.1-8.1H445.1c-4.5,0-8.1,3.6-8.1,8.1v3.8c0,4.5,3.6,8.1,8.1,8.1h105.9
	c4.5,0,8.1-3.6,8.1-8.1V359.1z"/>
<path id="Stroke-119" class="st18" d="M0,119.4c155.3-1.5,172.8-12,172.8,60c0,73.6-73.2,44.9-73.2,78.9
	c0,64.9,56.5,47.4,175.5,97.6c113.2,47.8,167.6,53.4,253.6,44.7c0,0,95.7-8,142.2-33.7"/>
<g id="Group-7" transform="translate(5.000000, 72.000000)">
	<path id="Fill-120" class="st19" d="M9.7,32.6c0,0-4.4-1.2-7.6,1.1s-2.7,8,1.2,8.3L17,37.4L12.9,32L9.7,32.6z"/>
	<path id="Fill-121" class="st8" d="M15.9,36.2c0,0-11.7-0.4-13.8,7.5c0,0-1,3,2.7,2.6c0,0,0.4,0.9,2.4,0c0,0,1.7,1.1,3.2,0.4
		c1.5-0.6,24.4,0.1,24.4,0.1h61.8c0,0,14.6-11.8,3-32.7c-7.8-14-29.1-19-44-8.6c0,0-21.1-6.9-29.9,10.8L15.9,36.2z"/>
	<path id="Fill-122" class="st19" d="M37,12.6c0,0,4.4,2.7,5.8,4.4c4.3-7.3,3-12,3-12S39.6,6.4,37,12.6"/>
	<path id="Fill-123" class="st19" d="M6,10c0.3,1.3,1.9,7.7,6.3,11c1.2-2.6,3.7-6.5,3.7-6.5C11.6,10.2,6,10,6,10"/>
	<path id="Stroke-124" class="st20" d="M43.6,47c0,0-6.6,0.3-6.6-4.3s6-5.8,10.8-5.8c4.8,0,52,7.7,46.9-9.9"/>
	<path id="Stroke-125" class="st20" d="M48,26c0,0,10.6-17.1,31-12.1"/>
	<path id="Stroke-126" class="st20" d="M9.6,32.4c0,0-7.1-2-9.1,3.3c-2,5.3,3.1,6.2,3.1,6.2s-2.1,2.8-0.6,4.1
		c1.2,1.1,2.2,0.4,2.2,0.4s0.7,0.9,2.4,0c0,0,1.7,1.2,3.5,0.3c0,0,6.1,0.5,6.9-1.8"/>
	<path id="Stroke-127" class="st20" d="M4,40c0,0-1.8-2.3-0.6-5"/>
	<path id="Stroke-128" class="st20" d="M8,38c0,0-2-2.2-0.4-4"/>
	<path id="Stroke-129" class="st20" d="M13,36c0,0-7,0.9-10,6"/>
	<path id="Stroke-130" class="st20" d="M5.1,46c0,0-0.5-2.6,0.9-4"/>
	<path id="Stroke-131" class="st20" d="M7.2,46c0,0-0.6-1.3,0.8-2"/>
	<path id="Fill-132" class="st21" d="M43.3,16.5c-1.4-1.6-5.5-4.2-5.5-4.2c2.4-6,8.3-7.3,8.3-7.3c-8,0-12.4,5.3-12.4,5.3l0,0
		c-2.9-1-6-1.3-9.3-0.8c-1.8,0.3-3.4,1.1-4.9,2.1c-2.1-1.3-7.6-4-13.5-2.4c0,0,0,0.1,0,0.2c0,0,5.6,0.2,10.1,4.4
		c0,0-2.5,3.8-3.8,6.4c-1,1.8-1.4,3-1.4,3s-3.1,5.4-0.8,9.8s7.7,4.2,12.9,7.1c5.2,3,12.9,2.3,16.1-3.4s10-6.6,8.6-12.8
		C47.3,21.8,45.7,19,43.3,16.5"/>
	<path id="Stroke-133" class="st20" d="M16,25.8c0,0,4.4-2.9,8,2.2"/>
	<path id="Stroke-134" class="st20" d="M33,26c0,0,0.6-5,6-5"/>
	<path id="Stroke-135" class="st20" d="M26,31.3c0,0,1.7-2.1,5-1c0,0,0.1,2.1-2,2.7C29,33,26.6,33.2,26,31.3z"/>
	<path id="Stroke-136" class="st20" d="M25,38c0,0,3.7-0.3,4.5-2c0,0,1.7,1.5,5.5,0.5"/>
	<path id="Stroke-137" class="st20" d="M29.4,33l0.2,2"/>
	<path id="Stroke-138" class="st20" d="M6,9.5c0,0,6.1-2,13.5,2.5c0,0,4-4.4,14.2-1.5c0,0,4.6-5.8,12.4-5.5"/>
	<path id="Stroke-139" class="st20" d="M56,5.5c0,0,10.9-7.9,24.1-4.8c13.3,3.1,20.9,11.7,23.2,22.2c2.3,10.5-1.5,21.4-7.2,24.1"/>
</g>
</svg>
