<?xml version="1.0" encoding="utf-8"?>
<!-- Generator: Adobe Illustrator 24.1.0, SVG Export Plug-In . SVG Version: 6.00 Build 0)  -->
<svg version="1.1" id="Layer_1" xmlns="http://www.w3.org/2000/svg" xmlns:xlink="http://www.w3.org/1999/xlink" x="0px" y="0px"
	 viewBox="0 0 707 544" style="enable-background:new 0 0 707 544;" xml:space="preserve">
<style type="text/css">
	.st0{fill:#8DAEFF;}
	.st1{fill:#EBECED;}
	.st2{fill:#FFFFFF;}
	.st3{fill:#DCDDDE;}
	.st4{fill:none;stroke:#0F0F0F;}
	.st5{fill:#0F0F0F;}
	.st6{fill:#4785FF;}
	.st7{fill:#7297ED;}
	.st8{opacity:0.712;fill:#BFDDFF;enable-background:new    ;}
	.st9{fill:#E8F2FE;}
	.st10{fill:#5F8CD6;}
	.st11{fill:#00233C;}
	.st12{fill:none;stroke:#006FC5;stroke-dasharray:9;}
	.st13{fill:none;stroke:#00233C;stroke-dasharray:9;}
	.st14{fill:none;stroke:#00233C;stroke-miterlimit:10;}
	.st15{fill:#8DADFE;}
	.st16{fill:none;stroke:#00233C;stroke-width:0.915;stroke-linecap:round;stroke-miterlimit:10;}
</style>
<desc>Created with Sketch.</desc>
<g>
	<path id="Fill-1" class="st0" d="M491,89.3c0-5-3.8-9.3-8.7-9.3H306.9c-4.9,0-8.9,4.3-8.9,9.3V94h193V89.3z"/>
	<path id="Fill-3" class="st1" d="M298,94v94.5c0,4.8,4,8.5,8.9,8.5h175.4c4.9,0,8.7-3.7,8.7-8.5V94H298z"/>
	<path id="Fill-5" class="st2" d="M312,87.5c0,1.4-1.1,2.5-2.5,2.5c-1.4,0-2.5-1.1-2.5-2.5c0-1.4,1.1-2.5,2.5-2.5
		C310.9,85,312,86.1,312,87.5"/>
	<path id="Fill-7" class="st2" d="M322,87.5c0,1.4-1.1,2.5-2.5,2.5c-1.4,0-2.5-1.1-2.5-2.5c0-1.4,1.1-2.5,2.5-2.5
		C320.9,85,322,86.1,322,87.5"/>
	<path id="Fill-9" class="st2" d="M333,87.5c0,1.4-1.1,2.5-2.5,2.5c-1.4,0-2.5-1.1-2.5-2.5c0-1.4,1.1-2.5,2.5-2.5
		C331.9,85,333,86.1,333,87.5"/>
	<polygon id="Fill-11" class="st2" points="306,140 482,140 482,102 306,102 	"/>
	<polygon id="Fill-13" class="st3" points="307,192 387,192 387,146 307,146 	"/>
	<polygon id="Fill-14" class="st0" points="393,159 404,159 404,148 393,148 	"/>
	<polygon id="Fill-15" class="st2" points="410,159 482,159 482,148 410,148 	"/>
	<polygon id="Fill-16" class="st2" points="410,175 482,175 482,164 410,164 	"/>
	<polygon id="Fill-17" class="st2" points="410,190 482,190 482,178 410,178 	"/>
	<polygon id="Fill-18" class="st0" points="393,175 404,175 404,164 393,164 	"/>
	<polygon id="Fill-19" class="st0" points="393,190 404,190 404,178 393,178 	"/>
	<path id="Fill-20" class="st0" d="M337,120.5c0,6.9-5.6,12.5-12.5,12.5c-6.9,0-12.5-5.6-12.5-12.5c0-6.9,5.6-12.5,12.5-12.5
		C331.4,108,337,113.6,337,120.5"/>
	<path id="Fill-21" class="st2" d="M359,162.5c0,6.9-5.6,12.5-12.5,12.5c-6.9,0-12.5-5.6-12.5-12.5c0-6.9,5.6-12.5,12.5-12.5
		C353.4,150,359,155.6,359,162.5"/>
	<polygon id="Fill-22" class="st3" points="349,111 477,111 477,107 349,107 	"/>
	<polygon id="Fill-23" class="st3" points="349,122 477,122 477,118 349,118 	"/>
	<polygon id="Fill-24" class="st3" points="349,132 477,132 477,129 349,129 	"/>
	<polygon id="Fill-25" class="st0" points="311,184 381,184 381,180 311,180 	"/>
	<path id="Fill-26" class="st0" d="M483.7,199l-7.6,11.5c0,0-35.3-26.8-38.3-38.8c0,0-2.4-2.3-0.9-9.1c1.6-6.8,6.3-31-2.3-29.6
		c-8.6,1.4-13.3,21.4-13.3,21.4s-7.5-17.9-20.4-12c0,0-6.4,3-2.9,9.5c0,0-12.8,2.4-6.6,15.2c0,0-8.3,2-2.2,12.1c0,0-5,5,1.5,12.2
		c0,0,49.1,55.5,82.3,72.6c0,0,9.6,4.5,19.6-5.6c10-10.1,28.3-34.3,28.3-34.3L483.7,199z"/>
	<path id="Stroke-27" class="st4" d="M474,256c0,0,6.1-7.4,17-2.1"/>
	<g>
		<path class="st0" d="M629.9,291.9c-0.2,0.3-0.3,0.5-0.3,0.5"/>
		<path class="st0" d="M668.8,217.2c-3.2-18.1-31.3-39.2-31.3-39.2s-27.4,30.1-27.5,41.4l13.7,16.3l-6,10.6c0,0,6.2,15.4,11.9,44
			c0.1,0.6,0.2,1.1,0.3,1.6C633.8,286.1,671.8,234.4,668.8,217.2z"/>
	</g>
	<g>
		<path class="st0" d="M629.9,291.9c-0.1-5.7-1-16.5-6.1-27.6c-7.3-16.1-13.3-47.8-13.3-47.8l26.5-39.4l-46.3-35.9
			c-11.9-7.7-49.6-2.5-49.6-2.5c-26.5,4.1-58.1,60.4-58.1,60.4l35,28.4c3.5,6.3,7.7,15.7,4.2,28.3c-3,10.8-5.4,32.3-6.1,38.5
			C563.5,279.7,601.1,282.3,629.9,291.9z"/>
	</g>
	<path id="Fill-33" class="st0" d="M527.6,91.1l1-7.6c0,0,0.2-1.9,0.9-4.6c1.2,1.6,3.9,3.3,8.3,4.1c0,0-0.9,7.9,5.7,12.7l0,4.3
		c0,0,1.2-11.3,8.5-7.5c5.5,3,4.4,16.8-4.3,17.7c0,0,2.5,15.1,22.1,12.4l6,15.2c0,0-15.9-0.4-35.8,2.2l3.5-10.6
		c0,0-15.6,0-17.4-20.4C520.4,106.9,527.6,91.2,527.6,91.1"/>
	<path id="Fill-35" class="st5" d="M529,95.6c0.1,1.9,0.8,3.4,1.7,3.4c0.8-0.1,1.4-1.7,1.3-3.6c-0.1-1.9-0.8-3.4-1.7-3.4
		C529.5,92.1,528.9,93.7,529,95.6"/>
	<path id="Stroke-36" class="st4" d="M545,106.9c0,0,5,1.1,2.7-5.1c-2.4-6.1,6.8-4,3.7-0.2"/>
	<path id="Stroke-37" class="st4" d="M529,117c0,0,3.9,0.8,7-5"/>
	<path id="Stroke-38" class="st4" d="M527,92c0,0-6,15.2-1,17"/>
	<polygon id="Fill-40" class="st6" points="544,130.3 552,124 542,136 	"/>
	<path id="Fill-42" class="st0" d="M610.3,217c0,0-3.8-27.7-3.3-40l16,21.2L610.3,217z"/>
	<path id="Fill-43" class="st0" d="M518,227.5l22-32.5c0,0-7.4,50.3-19,66C521,261,527.4,245.2,518,227.5"/>
	<path id="Stroke-44" class="st4" d="M576,139c0,0-26.6-0.2-36,1"/>
	<path id="Stroke-45" class="st4" d="M477,210c0,0-3.7,12.7,3,23"/>
	<path id="Stroke-46" class="st4" d="M436.9,165c0,0,6.9-32.4,0-33c-6.9-0.6-13.2,12.7-15.5,24.5l-11.4-8"/>
	<path id="Stroke-47" class="st4" d="M440,146c0,0-7.3-1.9-4.3-10.8c0,0,2-3.7,4.3,2.1"/>
	<path id="Stroke-48" class="st4" d="M421,153.4c0,0-9.9-17.7-20.6-10.8c-3.5,2.2-3.5,4.4-3.3,6.6c0.5,4.6,5.4,8.8,5.4,8.8"/>
	<path id="Stroke-49" class="st4" d="M399,152c0,0-9.9,1.5-8.9,9.3c0.9,7.9,6.1,10.7,6.1,10.7"/>
	<path id="Stroke-50" class="st4" d="M391.7,167c0,0-7.2,2-3.7,8.8c3.5,6.8,7,8.2,7,8.2"/>
	<path id="Stroke-51" class="st4" d="M390.9,178c0,0-3.3,2-1.2,9c2.2,6.9,70.4,77.3,90.6,78c20.2,0.7,58.6-70.2,58.6-70.2"/>
	<path id="Stroke-52" class="st4" d="M637,178l-26,39"/>
	<path id="Stroke-53" class="st4" d="M655.4,204c0,0-8.9,17.7,7.6,22"/>
	<path id="Stroke-54" class="st4" d="M623,235l8-11"/>
	<polygon id="Fill-66" class="st7" points="80,104 130.4,58 195,79.4 	"/>
	<polygon id="Fill-67" class="st8" points="198,110.4 90.2,139 76,84.6 183.8,56 	"/>
	<polygon id="Fill-68" class="st7" points="211,153.5 95.6,178 80,104.5 195.4,80 	"/>
	<polygon id="Fill-69" class="st9" points="202,120.9 93.6,148 80,94.1 188.4,67 	"/>
	<polygon id="Fill-70" class="st10" points="159,122.3 130.4,130 123,101.7 151.6,94 	"/>
	<path id="Fill-71" class="st2" d="M140.6,117.9c1.7,6.4-2.1,13-8.5,14.7c-6.4,1.7-13-2.1-14.7-8.5c-1.7-6.4,2.1-13,8.5-14.7
		C132.3,107.7,138.9,111.5,140.6,117.9"/>
	<polygon id="Fill-72" class="st11" points="159,122.9 136,129 143.6,111 	"/>
	<polygon id="Fill-73" class="st0" points="211,153.5 95.6,178 80,104.5 144.4,123.9 195.4,80 	"/>
	<polyline id="Stroke-74" class="st4" points="80,106.4 95.4,179 211,154.3 144.3,124.2 195.3,80 	"/>
	<path id="Stroke-75" class="st4" d="M95,178l49-54"/>
	<polyline id="Stroke-76" class="st4" points="192,82.9 188,67 80,94 	"/>
	<path id="Stroke-77" class="st12" d="M-150,322.3c0,0,27-9.4,50.1-39c23.1-29.6,105.6-75,169.8-18.1
		c64.2,56.9,136.5,112.8,255.9,107.4c119.4-5.4,148.8-81.6,241.4-88.4c92.6-6.8,139.8,73.2,139.8,81.4"/>
	<path id="Fill-78" class="st11" d="M239.8,125.4c0-3-1.6-4.6-3.8-4.6c-2.5,0-4.4,2.6-4.4,5.8c0,3.1,1.7,4.8,3.8,4.8
		C237.9,131.3,239.8,128.7,239.8,125.4 M241.2,135c-1.4,2.3-4.3,3.8-7.2,3.8c-6.2,0-10.8-4.7-10.8-12.2c0-7.5,5-13.3,11.6-13.3
		c2.7,0,4.9,1.2,6,3.2l0.3-2.4h7.8l-1.8,14.7c-0.1,1.3,0.1,2.4,1.8,2.4c2.4,0,4.5-3.8,4.5-8.6c0-8.7-6.2-14.5-15.6-14.5
		c-10.8,0-19.1,7.8-19.1,18.2c0,10.1,7.2,17.4,17.6,17.4c5.3,0,9.7-1.2,13.5-3.6l4.3,7c-4.1,2.8-11.2,4.8-17.9,4.8
		c-14.9,0-26.4-9.3-26.4-25.4c0-15.7,12.1-26.6,27.9-26.6c13.9,0,24.1,9.6,24.1,22.4c0,10-6.7,16.2-13.5,16.2
		C245,138.7,242.3,137.4,241.2,135"/>
	<path id="Stroke-79" class="st13" d="M-79,163.4c0,0,86.4,7.2,91.2-28.1c4.1-30.4-21.6-20.2-17.3-1.3c4.3,18.9,61.9,13.5,82.1-10.4
		"/>
	<path id="Stroke-80" class="st13" d="M-93,175.3c0,0,91.5,40.2,173-22.3"/>
	<path class="st11" d="M588.8,94.8c1.8-12.2-2.5-33.5-21.8-41.2S534.5,60,534.5,60c-11.5-4-12,8-12,8c-1,9.5,6.8,12.3,6.8,12.3
		l0.3-1.3c2.7,4.3,8.2,4.5,8.2,4.5c-1.2,6.6,5.3,12.5,5.3,12.5l0.5,4c0,0,0.3-5.2,4.8-7.4s6.5,4.5,6.5,4.5c1.3,9.7-7.1,13-7.1,13
		l0.4,2.6c0,0,0.9,3,1.8,7.3h44.1C590.7,108.4,588.8,94.8,588.8,94.8z"/>
	<path class="st0" d="M574.4,74.7c0,0-4.6-0.5-7.7-3.8c-2.8-3.1-1.8-6.5-1.8-6.5l14.5-13.2l4.7,5.2l4.7,5.2L574.4,74.7z"/>
	<circle class="st11" cx="587.1" cy="54.6" r="15.9"/>
	<path class="st11" d="M622.5,199.6c6.5-10.2,6.5-30.5-9.3-38c-15.7-7.4-8.8-15.3-8.3-18c0.5-2.8,10.2-14.3-4.2-24.5
		c-14.3-10.2-12-26.8-12-26.8l-40.8,18c-0.7,5.1-1,12.4-6.4,17.8c-12.5,12.4-1,22.2-0.1,24.9c0.9,2.7,9.1,9.3-5.2,19.2
		c-14.3,9.9-10.9,30-2.9,39c0,0,14.1,18.7,48.9,18C605.5,228.5,622.5,199.6,622.5,199.6z"/>
	<path class="st12" d="M275.9,343.6c0,0,58.5-83.5,181.5-43.5"/>
	<g>
		<g>
			<line class="st14" x1="306.7" y1="239.1" x2="324.7" y2="251.6"/>
			<line class="st14" x1="308.4" y1="253.4" x2="325.9" y2="255.6"/>
			<line class="st14" x1="310.9" y1="262.9" x2="324.7" y2="260.4"/>
			<line class="st14" x1="367.2" y1="237.6" x2="358.2" y2="245.9"/>
			<line class="st14" x1="369.7" y1="251.9" x2="359.7" y2="253.6"/>
			<path class="st15" d="M330.9,270.4c0,0-10.8-3.8-9.8-15.3c1-11.5,7.2-16.2,7.2-16.2s-3-17,0.5-19s12,13,12,13s3.5-0.8,6.5-0.8
				c0,0,4.8-12.8,9.2-12s1,17.2,1,17.2s6,8.5,3.5,20.5c0,0,10.8,3.3,13.4,12.6c0,0,21.3,2.4,25.8,25.9c0,0,7.2,18.9-3.8,35.3
				c-8,11.9-76.9-0.3-76.9-0.3s11.1-7.4,19.6-8.4l0.7-23C339.9,300,331.9,289.1,330.9,270.4z"/>
			<line class="st14" x1="368.2" y1="245.6" x2="359.4" y2="251.1"/>
			<path class="st6" d="M342.3,247.7c0,0-3.6,1.3-4.8-1c-1.2-2.3,3.7-6.8,10.2-7.3c6.3-0.5,10,2.8,10.7,3.5c0,0,2.1,3-1.5,3.3
				C353.3,246.6,346.7,245.6,342.3,247.7z"/>
			<path class="st6" d="M343,258.7c0,0-3.6,1.3-4.8-1c-1.2-2.3,3.7-6.8,10.2-7.3c6.3-0.5,10,2.8,10.7,3.5c0,0,2.1,3-1.5,3.3
				S347.4,256.6,343,258.7z"/>
			<path class="st6" d="M367.8,267.6c-2.6,1.6-8.5-0.1-12.6,3.6c-2.1,1.9-3.7,2.5-5.5,1.6c-1.8-0.9-1.9-5.4,3.3-8.5
				c5.2-3.1,11.8-1.6,11.8-1.6S372.5,264.9,367.8,267.6z"/>
			<path class="st6" d="M362.9,274.1c0,0-5.8,3.4-3.9,7.1c1.8,3.6,6.2-0.2,7.6-1.4c1.3-1.2,8.1-5.2,10.8-5.2c2.7,0,0.6-5.1-4.9-4.4
				C367.3,270.7,362.9,274.1,362.9,274.1z"/>
			<path class="st6" d="M387.9,281.3c0,0,2.4-1.2-0.1-3.6s-9.8,0.6-12.6,2.6s-5.5,4.8-4.8,7.4s5.1,0.7,7.4-1.6
				C380.1,284,387.9,281.3,387.9,281.3z"/>
			<path class="st6" d="M379.4,291.4c0,0-3.3,2.3-2.2,5.1c0.8,2,6.8-1.1,6.8-1.1s10.7-5.2,10.7-6.7s-0.3-3.2-3.1-3.2
				C388.7,285.6,379.4,291.4,379.4,291.4z"/>
			<path class="st6" d="M389.7,297.5c0,0,5.8-2.2,8.3,0.1c2.6,2.4-0.8,5.8-1.9,6.1c-1.1,0.2-8.9,5.9-12.2,3.2
				C380.6,304.3,385.4,298.7,389.7,297.5z"/>
		</g>
		<path class="st16" d="M327.9,239.9c0,0,3.5-4.4,8-5.9"/>
		<path class="st16" d="M338.7,233.6c0,0,10-3.5,17.5,1.6"/>
		<path class="st16" d="M341.9,261.1c0,0-7.4,3.3-10.3,8c-2.9,4.7,3.2,24.9,7.7,30"/>
		<line class="st16" x1="339.6" y1="292.6" x2="339.6" y2="322.3"/>
		<polyline class="st16" points="345,301.3 351.6,309.7 351.6,320.9 		"/>
		<path class="st16" d="M373,297.4c0,0-7.9-12.1-14.3-8.3c-6.4,3.8-8.3,13.8-7.1,20.7c1.2,6.8,5.2,11.5,5.2,11.5"/>
		<path class="st16" d="M388.8,310.7c0,0,4,11.7-9,11.2s-46.5-2.2-59.2,9.7"/>
		<path class="st16" d="M355.9,258c0,0,14.5-0.5,18,12c0,0,16.3,1.3,23.8,17.8s6.7,33.8-0.3,42.7"/>
	</g>
</g>
</svg>
