<?xml version="1.0" encoding="UTF-8"?>
<svg width="545px" height="387px" viewBox="0 0 545 387" version="1.1" xmlns="http://www.w3.org/2000/svg" xmlns:xlink="http://www.w3.org/1999/xlink">
    <!-- Generator: Sketch 55.2 (78181) - https://sketchapp.com -->
    <title>Group 69</title>
    <desc>Created with Sketch.</desc>
    <g id="Page-1" stroke="none" stroke-width="1" fill="none" fill-rule="evenodd">
        <g id="Process" transform="translate(-115.000000, -1103.000000)">
            <g id="Group-69" transform="translate(115.000000, 1104.000000)">
                <path d="M507,222 C506.331315,222.33818 505.664648,222.671201 505,223" id="Stroke-4" stroke="#006FC5"></path>
                <path d="M2,155 C1.3202847,155.327064 0.653787494,155.66055 0,156" id="Stroke-8" stroke="#006FC5"></path>
                <g id="Group-22" transform="translate(325.000000, 0.000000)">
                    <path d="M218.578222,108.935308 C218.578222,169.007206 169.665687,217.705675 109.333215,217.705675 C49.0002361,217.705675 0.0877013889,169.007206 0.0877013889,108.935308 C0.0877013889,48.8629044 49.0002361,0.164941531 109.333215,0.164941531 C169.665687,0.164941531 218.578222,48.8629044 218.578222,108.935308" id="Fill-10" fill="#B6CFFF"></path>
                    <path d="M109.333165,0.164739211 C169.665637,0.164739211 218.578172,48.8632079 218.578172,108.935106 C218.578172,169.007004 169.665637,217.705472 109.333165,217.705472" id="Stroke-12" stroke="#0F0F0F"></path>
                    <path d="M191.92354,108.935308 C191.92354,154.350626 154.945998,191.16683 109.333165,191.16683 C63.7198243,191.16683 26.7422826,154.350626 26.7422826,108.935308 C26.7422826,63.5194845 63.7198243,26.7032803 109.333165,26.7032803 C154.945998,26.7032803 191.92354,63.5194845 191.92354,108.935308" id="Fill-14" fill="#FFFFFF"></path>
                    <path d="M109.333165,191.166628 C63.7198243,191.166628 26.7422826,154.350424 26.7422826,108.935106 C26.7422826,63.5197879 63.7198243,26.703078 109.333165,26.703078" id="Stroke-16" stroke="#0F0F0F"></path>
                    <path d="M110.039135,106.825665 L62.711309,158.884672" id="Stroke-18" stroke="#00233C"></path>
                    <path d="M110.04309,106.825665 L148.166326,93.3283796" id="Stroke-20" stroke="#00233C" stroke-width="5"></path>
                </g>
                <path d="M323.079573,376.396065 C338.342644,368.850334 344.85294,353.979643 344.85294,353.979643 C344.85294,353.979643 349.612883,346.422773 349.136483,329.93174 C349.136483,329.93174 389.790823,330.512531 413.920317,319 C413.920317,319 417.693467,370.798289 373.311638,382.596406 C350.902056,388.553189 331.289486,386.406742 318,378.375414 C319.51545,377.963746 321.201369,377.324217 323.079573,376.396065" id="Fill-23" fill="#8DAEFF"></path>
                <path d="M300.495032,340 C300.495032,340 318.26984,353.380176 345,353.932667 C345,353.932667 338.468879,368.603155 323.156984,376.047299 C321.272771,376.963455 319.581459,377.593874 318.061671,378 C304.989758,370.231655 298.017359,356.881451 300.495032,340" id="Fill-25" fill="#527DC5"></path>
                <g id="Group-2" transform="translate(300.000000, 237.000000)">
                    <path d="M59.9213445,22.01515 C59.9213445,22.01515 34.1783193,46.00065 9.82436975,43.53265 L2.13162821e-14,20.10415 C2.13162821e-14,20.10415 12.552605,24.00115 47.4993277,0.00015 L59.9213445,22.01515 Z" id="Fill-27" fill="#8DAEFF"></path>
                    <path d="M35.4823361,29.55885 C33.1388067,32.37385 28.8263697,32.68085 25.8510756,30.24435 C22.8752773,27.80835 22.3635126,23.55135 24.7075462,20.73635 C27.0510756,17.92185 31.3630084,17.61435 34.3383025,20.05035 C37.3141008,22.48685 37.8258655,26.74385 35.4823361,29.55885" id="Fill-29" fill="#FFFFFF"></path>
                    <path d="M47.499479,2.84217094e-14 L59.9214958,22.015 C59.9214958,22.015 35.0335966,45.4585 9.82401681,43.5325" id="Stroke-31" stroke="#0F0F0F"></path>
                </g>
                <path d="M172.710055,172 C152.99597,178.783414 114,182.624362 114,182.624362 C118.326041,204.250701 128.596855,223.73435 138.756589,234.271647 C142.836236,238.502359 147.508643,241.337007 151.6408,243.215974 C153.894199,243.882622 161.689455,245.66187 165.650448,239.835656 C170.309728,232.978845 170.65155,219.531984 170.65155,219.531984 C170.65155,219.531984 199.476173,244.024355 223.59557,226.431821 C223.865695,226.054205 224,225.842113 224,225.842113 C178.894658,211.150031 172.710055,172 172.710055,172" id="Fill-33" fill="#8DAEFF"></path>
                <path d="M170.022328,220 C170.022328,220 169.680289,233.468069 165.018048,240.335694 C161.054537,246.171603 153.254831,244.389043 151,243.72185 C157.164788,246.528014 162.128145,247.207375 162.128145,247.207375 C202.818679,252.36798 220.22731,230.787637 223,226.910719 C198.865273,244.530998 170.022328,220 170.022328,220" id="Fill-35" fill="#527DC5"></path>
                <polygon id="Fill-37" fill="#527DC5" points="125 195.20418 127.680855 203 173 191.872284 170.096248 185"></polygon>
                <polygon id="Fill-39" fill="#527DC5" points="133 209.303327 135.892253 217 181 204.771089 177.90879 198"></polygon>
                <path d="M114,182 C114,182 123.262515,243.002148 166.698635,246.638108 C210.13425,250.274069 224,225.31394 224,225.31394" id="Stroke-41" stroke="#0F0F0F"></path>
                <path d="M348.880472,330 C348.880472,330 352.646736,364.883549 317.896647,378 C317.896647,378 296.593531,367.823625 300.471873,339.834203" id="Stroke-43" stroke="#0F0F0F"></path>
                <path d="M451.373777,255 C464.739825,263.81542 493,274.131424 493,274.131424 C485.669143,289.387016 475.868954,302.153095 464.768561,307.804045 C460.751991,309.849145 456.917924,311.383603 453.488186,311.991319 C451.686351,312.056034 445.552348,311.888685 443.716734,306.79742 C441.556448,300.807727 440.754344,295.931843 440.754344,295.931843 C440.754344,295.931843 417.772628,303.442343 403.187544,285.746281 C403.05949,285.413099 403,285.230077 403,285.230077 C439.327597,282.931677 451.373777,255 451.373777,255" id="Fill-45" fill="#8DAEFF"></path>
                <polygon id="Fill-47" fill="#527DC5" points="482 281.534238 478.493366 287 447 269.714322 450.49296 265"></polygon>
                <polygon id="Fill-49" fill="#527DC5" points="474 290.563136 470.427689 296 440 277.67589 443.541532 273"></polygon>
                <path d="M452,311.837185 C452,311.837185 437.436776,309.770866 445.548327,291.817391 C445.548327,291.817391 409.532259,292.9058 405.453633,271 C405.453633,271 401.262004,280.547562 403.835943,287.18098 C403.835943,287.18098 413.021768,308.698027 445.544309,311.936634 C447.584878,312.140051 449.773605,311.783945 452,311.837185" id="Fill-51" fill="#527DC5"></path>
                <path d="M414,284.101229 C414,284.101229 437.425303,281.742972 451.528302,255 C451.528302,255 469.870539,266.612916 493,274.395011 C493,274.395011 477.056649,312.764738 450.268586,313" id="Stroke-53" stroke="#0F0F0F"></path>
                <path d="M70.9766709,259.331395 L77.9779797,260 C77.9779797,260 85.4474519,240.38657 60,216 C60,216 74.335366,240.675436 70.9766709,259.331395" id="Fill-55" fill="#527DC5"></path>
                <path d="M59.9825495,216 C59.9825495,216 80.1294719,238.967634 72.1164854,263.426351 L56,264 L59.9825495,216 Z" id="Fill-57" fill="#8DAEFF"></path>
                <path d="M60.0213186,215 C60.0213186,215 72.9129947,243.368761 60.8354089,269.067556 L27,273 C27,273 37.6974757,253.358061 28.9296585,220.771911 L60.0213186,215 Z" id="Fill-59" fill="#BFDDFF"></path>
                <path d="M43.6058566,233.332259 C44.061188,234.122693 44.9548146,234.538634 45.7699714,234.448341 C46.3548813,234.383704 46.8065989,234.110358 46.7513603,233.653465 C46.7121254,233.331765 46.4348998,233.122068 45.7725526,232.989342 L44.2981462,232.672083 C42.5449653,232.282787 41.2352422,231.398605 41.0277102,229.687971 C40.8103695,227.893951 41.8882969,226.41867 43.6719364,225.878392 L43.4726644,224.235354 L45.5980606,224 L45.8014626,225.67659 C47.1659081,225.81721 48.4312338,226.483306 49.2066395,227.547087 L46.8401551,229.353936 C46.4256073,228.747541 45.8009463,228.336042 45.0745843,228.416467 C44.5077432,228.479622 44.1840552,228.772705 44.2315501,229.162001 C44.2743987,229.517746 44.6140904,229.651459 45.0776818,229.77185 L46.7415516,230.171014 C48.7549218,230.634321 49.7858706,231.584126 49.9722364,233.125029 C50.2086783,235.072004 48.9056664,236.468833 47.1788143,237.037729 L47.3884113,238.764646 L45.2624989,239 L45.0554831,237.289859 C43.4989931,237.187724 42.0276841,236.457978 41.1645161,235.112463 L43.6058566,233.332259 Z" id="Fill-61" fill="#527DC5"></path>
                <path d="M60.0237295,215 C72.9777451,249.980803 60.8378792,269.067556 60.8378792,269.067556 L27,273" id="Stroke-63" stroke="#0F0F0F"></path>
                <path d="M63.2613088,263 L71.3705362,262.693476 C71.3705362,262.693476 79.3481301,238.822807 60,215" id="Stroke-65" stroke="#0F0F0F"></path>
                <path d="M73.0444645,259.408821 L78.1754397,260 C78.1754397,260 84.707791,238.673338 61,217" id="Stroke-67" stroke="#0F0F0F"></path>
            </g>
        </g>
    </g>
</svg>