<?xml version="1.0" encoding="UTF-8"?>
<svg width="412px" height="473px" viewBox="0 0 412 473" version="1.1" xmlns="http://www.w3.org/2000/svg" xmlns:xlink="http://www.w3.org/1999/xlink">
    <!-- Generator: Sketch 55.2 (78181) - https://sketchapp.com -->
    <title>Group 2</title>
    <desc>Created with Sketch.</desc>
    <defs>
        <polygon id="path-1" points="0.727934591 0.0205583942 123.271909 0.0205583942 123.271909 215 0.727934591 215"></polygon>
    </defs>
    <g id="Page-1" stroke="none" stroke-width="1" fill="none" fill-rule="evenodd">
        <g id="Process" transform="translate(-721.000000, -1562.000000)">
            <g id="Group-2" transform="translate(721.000000, 1562.000000)">
                <g id="Group-3" transform="translate(288.000000, 258.000000)">
                    <mask id="mask-2" fill="white">
                        <use xlink:href="#path-1"></use>
                    </mask>
                    <g id="Clip-2"></g>
                    <path d="M115.815532,0.0927481752 L14.3180226,0.0927481752 L14.3180226,0.0205583942 L0.727934591,121.517529 L34.2211925,197.808004 L87.612161,203.915887 L53.2992553,116.484646 L65.6875572,49.3175474 L71.5428528,200.635175 L123.271909,215.000157 L115.973847,11.4155584 C115.973847,11.4155584 115.929394,7.15479197 115.815532,0.0927481752" id="Fill-1" fill="#8DAEFF" mask="url(#mask-2)"></path>
                </g>
                <polygon id="Fill-13" fill="#527DC5" points="152 259 190 259 190 182 152 182"></polygon>
                <polygon id="Fill-15" fill="#3463A3" points="152 191 190 191 190 182 152 182"></polygon>
                <polygon id="Fill-16" fill="#8DAEFF" points="0 182 216 182 216 164 0 164"></polygon>
                <polygon id="Fill-17" fill="#8DAEFF" points="24 259 63 259 63 182 24 182"></polygon>
                <polygon id="Fill-18" fill="#668CDF" points="24 191 63 191 63 182 24 182"></polygon>
                <polygon id="Fill-19" fill="#00344F" points="56 142 171 142 171 58 56 58"></polygon>
                <polygon id="Fill-20" fill="#00233C" points="63 142 178 142 178 58 63 58"></polygon>
                <polygon id="Fill-21" fill="#00344F" points="107 164 126 164 126 142 107 142"></polygon>
                <polygon id="Fill-22" fill="#527DC5" points="67 136 174 136 174 66 67 66"></polygon>
                <polygon id="Fill-23" fill="#00233C" points="111 164 130 164 130 142 111 142"></polygon>
                <polygon id="Fill-24" fill="#00344F" points="96 164 136 164 136 160 96 160"></polygon>
                <polygon id="Fill-25" fill="#00233C" points="99 164 139 164 139 160 99 160"></polygon>
                <polygon id="Fill-26" fill="#004E69" points="70 191 105 191 105 182 70 182"></polygon>
                <path d="M269.706113,118.180901 L269.024907,118.876818 C269.024907,118.876818 184.683737,99.4719175 175.37996,104.986438 C169.481425,108.483111 182.514116,112.68735 182.514116,112.68735 L177.306237,111.525418 L157,125.276769 L186.996687,146.889031 L200.726334,143.807112 L260.570866,157.215942 C260.570866,157.215942 288.104186,164.662875 302,149.12746 L269.706113,118.180901 Z" id="Fill-27" fill="#8DAEFF"></path>
                <path d="M340,71.3153801 C322.367648,61.6612578 301.148988,85.3189467 301.148988,85.3189467 L269,118.80223 L300.949533,150 C302.657372,148.053516 304.158744,145.75156 305.37184,143.031493 L340,71.3153801 Z" id="Fill-28" fill="#B8D3F1"></path>
                <path d="M297.351271,145 L269,117.436461 L310.643526,75.5880466 C310.643526,75.5880466 321.418164,66.0246853 335,67.0815634" id="Stroke-29" stroke="#0F0F0F"></path>
                <path d="M289,156.783723 C289,156.783723 277.991666,160.505978 252.309242,154.927131 C226.626028,149.349796 202,144 202,144" id="Stroke-30" stroke="#0F0F0F"></path>
                <path d="M248.552477,270.949086 L301.965406,206.283636 L300.846937,257.898065 L402.832108,257.898065 L404.994585,112.566299 C404.994585,112.566299 406.409325,65.3821406 363.505451,64.38759 C351.068274,64.0990523 340.639166,63.2295084 331.270525,65.6769679 C325.087207,67.5874487 320.91431,71.3573069 316.070488,77.0289975 C306.617198,87.7072485 296.437336,107.57389 291.030753,141.08671 L288.599437,157.704748 L225.730867,232.499677 C225.730867,232.499677 209.524444,235.469178 202.393524,247.572034 C194.650463,260.713469 208.171623,254.572413 208.171623,254.572413 C208.171623,254.572413 199.753719,270.123569 202.391172,278.718374 C205.268465,288.093095 212.419764,270.1959 212.419764,270.1959 C212.419764,270.1959 208.171623,278.434554 210.438343,283.547252 C212.704279,288.660736 219.78347,274.740958 219.78347,274.740958 C219.78347,274.740958 213.658152,284.435665 217.906293,286.7078 C222.154434,288.979936 227.365069,279.469987 227.365069,279.469987 C227.365069,279.469987 222.111325,288.023909 226.86266,288.945343 C233.093005,290.152955 248.552477,270.949086 248.552477,270.949086" id="Fill-31" fill="#8DAEFF"></path>
                <path d="M324.625989,24.9370404 L325.301531,18.7373371 C325.301531,18.7373371 325.421296,17.2075299 325.965331,15 C326.933634,16.2591915 329.004878,17.5909679 332.611944,18.1306214 C332.611944,18.1306214 331.859689,24.6309212 337.340738,28.3856156 L337.900428,34.1308739 C337.900428,34.1308739 339.819813,23.1989459 344.312206,25.5477009 C348.803816,27.896456 348.296573,39.1179348 341.351719,40.0197242 C341.351719,40.0197242 343.757213,52.2282008 359.491157,49.6040963 L366,64.4508789 C366,64.4508789 351.433968,63.9577745 335.560689,65 L338.518827,55.7320037 C338.518827,55.7320037 325.952024,56.0941396 324.00211,39.473759 C319.159813,37.9471076 324.622858,24.946508 324.625989,24.9370404" id="Fill-32" fill="#8DAEFF"></path>
                <path d="M342.751096,41.058019 C349.726582,40.1571613 350.011136,28.7857051 345.406403,26.632474 C341.425015,24.7708591 339.392266,35.1650069 339.392266,35.1650069 L337.982863,29.5092286 C332.478092,25.7584135 333.657181,19.2230576 333.657181,19.2230576 C330.035021,18.6839617 328.272677,17.3228233 327.300323,16.0649328 C325.123726,8.56330261 334.855135,-4.1086043 353.994096,1.30915214 C379.309908,8.47581774 371.691426,41.851688 360.99395,50.6309124 C345.192595,53.2515177 342.751096,41.058019 342.751096,41.058019" id="Fill-33" fill="#00233C"></path>
                <path d="M327.021152,29.6430506 C327.159048,31.0211174 327.932358,32.074525 328.74876,31.9958665 C329.565946,31.9172079 330.116743,30.7357874 329.978848,29.3569494 C329.841736,27.9788826 329.068426,26.925475 328.25124,27.0041335 C327.434054,27.0835632 326.883257,28.2642126 327.021152,29.6430506" id="Fill-34" fill="#0F0F0F"></path>
                <path d="M341,38.9536848 C341,38.9536848 343.984833,39.7818794 342.481075,34.4339323 C340.97665,29.0859851 346.413929,30.7741599 344.639975,34.1531584" id="Stroke-35" stroke="#0F0F0F"></path>
                <polygon id="Fill-36" fill="#4785FF" points="340.0222 56.3329193 345 51 339 60"></polygon>
                <path d="M339,57 C325.445962,55.6879996 324.957562,41.1614573 324.957562,41.1614573 C322.664734,39.8786637 323.019865,37.0663558 323.019865,37.0663558 C323.019865,37.0663558 323.807362,30.7838184 325.561058,27" id="Stroke-37" stroke="#0F0F0F"></path>
                <path d="M325,43.3239266 C325,43.3239266 329.721221,43.5109666 333.99746,39 C333.99746,39 334.312261,47.4757448 327.932617,50 C327.932617,50 325.949136,47.6392084 325,43.3239266" id="Fill-38" fill="#FFFFFF"></path>
                <path d="M325,43.3239266 C325,43.3239266 329.721221,43.5109666 333.99746,39 C333.99746,39 334.312261,47.4757448 327.932617,50 C327.932617,50 325.949136,47.6392084 325,43.3239266 Z" id="Stroke-39" stroke="#0F0F0F"></path>
                <path d="M174.374985,106.983849 L114.608937,85 C106.750904,103.185221 114.173866,123.274825 114.173866,123.274825 L159.43308,136.325541 L181.038735,153.463429 C185.724602,155.528461 186.22576,150.967144 186.22576,150.967144 C190.248399,153.650592 191.281398,148.983996 191.281398,148.983996 C196.017617,151.715016 196.810659,147.300309 196.810659,147.300309 C201.789196,149.510392 203,144.731498 203,144.731498 C194.511783,138.784395 183.088998,114.81116 183.088998,114.81116 L182.600428,112.99022 C182.600428,112.99022 174.399374,110.135985 174.374985,106.983849" id="Fill-40" fill="#ADC3FB"></path>
                <path d="M336.338433,64.3397838 C336.338433,64.3397838 318.813419,63.570343 303.867678,97.1537549 C303.867678,97.1537549 291.106156,124.204015 289,157.531209 L326.384067,163.086005 C326.384067,163.086005 327.290085,177.856746 302.423885,206.05959 L301.290771,258 L403.892334,258 L405.978777,113.945067 C405.978777,113.945067 408.203211,66.5550796 367.10597,64 L336.338433,64.3397838 Z" id="Fill-41" fill="#FFFFFF" opacity="0.50937035"></path>
                <path d="M158.684795,135.554797 C158.684795,135.554797 156.763794,138.293091 159.35668,140.544062 C161.949566,142.795892 168.886428,136.119474 167.905755,133.324454 C166.925083,130.529435 160.11546,132.582726 158.684795,135.554797" id="Fill-42" fill="#8DAEFF"></path>
                <path d="M162.685116,140.554466 C162.685116,140.554466 160.763378,143.293511 163.356987,145.544393 C165.949821,147.795275 172.885767,141.11912 171.90589,138.324211 C170.925237,135.529302 164.115752,137.583371 162.685116,140.554466" id="Fill-43" fill="#8DAEFF"></path>
                <path d="M165.684795,144.554582 C165.684795,144.554582 163.763794,147.292709 166.35668,149.544403 C168.949566,151.795236 175.886428,145.119224 174.905755,142.324374 C173.925859,139.529524 167.11546,141.58269 165.684795,144.554582" id="Fill-44" fill="#8DAEFF"></path>
                <path d="M171.684752,148.554797 C171.684752,148.554797 169.763873,151.293091 172.356594,153.544062 C174.949316,155.795892 181.885738,149.119474 180.905903,146.324454 C179.925293,143.529435 173.115326,145.582726 171.684752,148.554797" id="Fill-45" fill="#8DAEFF"></path>
                <path d="M313,167 C313,167 305.641778,171.707515 310.885279,185" id="Stroke-46" stroke="#0F0F0F"></path>
                <path d="M267,154 C267,154 274.074,144.131184 286,152.123087" id="Stroke-47" stroke="#0F0F0F"></path>
                <path d="M196,104.347929 C196,104.347929 179.124188,101.309294 175.683159,104.356633 C172.24213,107.404764 182.595082,112.408224 189.011394,114.123786 C189.011394,114.123786 187.011997,120.006393 190.198763,127" id="Stroke-48" stroke="#0F0F0F"></path>
                <path d="M176,104.314776 C176,104.314776 176.109114,107.713437 179.263248,106.863576 C182.417381,106.013714 180.311474,103 180.311474,103" id="Stroke-49" stroke="#0F0F0F"></path>
                <path d="M182.290308,114 C182.290308,114 192.577367,136.877494 201.479949,144.018669 C201.479949,144.018669 203.296382,145.807318 200.139775,147.645695 C200.139775,147.645695 198.377929,148.663946 196.215772,147.362321 C196.215772,147.362321 195.476066,151.215888 190.655713,149.06651 C190.655713,149.06651 190.120118,153.229499 185.571123,151.073806 C185.571123,151.073806 184.885213,156.551049 179,152.518302" id="Stroke-50" stroke="#0F0F0F"></path>
                <path d="M175.411686,145.562367 C175.411686,145.562367 179.73479,144.039002 180.825072,146.006754 C181.914578,147.974505 177.70865,153.576891 173.924092,153.977185 C170.138757,154.377479 170.674974,149.394987 171.951496,148.083441" id="Stroke-51" stroke="#0F0F0F"></path>
                <path d="M171.305971,142.063084 C171.305971,142.063084 175.708469,141.402801 174.901137,144.354565 C174.093804,147.305549 169.103162,150.488335 166.630463,149.937318 C164.158543,149.38552 165.231866,145.921763 165.231866,145.921763" id="Stroke-52" stroke="#0F0F0F"></path>
                <path d="M167.652894,138.015556 C167.652894,138.015556 171.529171,137.674083 170.938817,140.190896 C170.34769,142.706934 164.645558,148.384705 161.623559,144.897796 C161.623559,144.897796 160.103299,143.039871 161.810312,141.051565" id="Stroke-53" stroke="#0F0F0F"></path>
                <path d="M165.226876,132.031544 C165.226876,132.031544 168.22593,131.530766 167.986377,134.519838 C167.745278,137.50891 161.533891,142.361603 159.439731,140.640071 C157.34557,138.917672 158.153097,137.189209 158.153097,137.189209" id="Stroke-54" stroke="#0F0F0F"></path>
                <path d="M165.360637,137 C165.360637,137 163.832715,136.673459 164.015123,135.229803 C164.197531,133.786148 167.06289,133.630095 166.998946,134.67434" id="Stroke-55" stroke="#0F0F0F"></path>
                <path d="M170.264696,142 C170.264696,142 168.421418,141.221749 169.185509,139.601455 C169.9496,137.981161 172.254243,137.469237 171.976987,138.630235" id="Stroke-56" stroke="#0F0F0F"></path>
                <path d="M173.785721,145.995473 C173.785721,145.995473 172.159948,146.161719 172.005422,144.479261 C171.851544,142.796804 175.024529,142.409128 174.999857,144.051576" id="Stroke-57" stroke="#0F0F0F"></path>
                <path d="M178.507336,151 C178.507336,151 177.210379,150.866029 177.00866,149.620887 C176.807602,148.375088 180.175986,147.359142 179.992785,148.490014" id="Stroke-58" stroke="#0F0F0F"></path>
                <path d="M303,221 C303,221 323.501325,201.017737 328.95699,179.004778 L335,130 L326.764947,161.796147 C326.764947,161.796147 322.681027,179.856994 316.319522,188.359499 C309.95878,196.862004 303,205.594073 303,205.594073 L303,221 Z" id="Fill-59" fill="#8DAEFF"></path>
                <path d="M326,164 C326,164 323.634559,179.226716 314.483015,191.353885 C305.332248,203.481836 281,233 281,233" id="Stroke-60" stroke="#0F0F0F"></path>
                <path d="M369,65.3974296 C369,65.3974296 338.744706,64.3516906 334.399099,65.6528298 C330.052704,66.9531903 320.131036,70.2811789 312.738854,82.1058946 C305.345883,93.9306102 291.461696,122.697389 289,157.514347 L326.370801,163 L335.679213,128.676711" id="Stroke-61" stroke="#0F0F0F"></path>
                <path d="M121.22264,129 C122.973016,129 124.607637,127.790816 126,125.693182 L115,123 C116.636275,126.723562 118.820731,129 121.22264,129" id="Fill-62" fill="#00344F"></path>
                <path d="M127.072521,88.6572784 L128,89 C126.379327,82.0404232 123.774819,78 120.764538,78 C118.567412,78 116.557875,80.2104341 115,84.0526085 L115.033814,84.2299891 L127.072521,88.6572784 Z" id="Fill-63" fill="#00344F"></path>
                <path d="M158,136 L115,123" id="Stroke-64" stroke="#0F0F0F"></path>
                <path d="M173,106 L117,85" id="Stroke-65" stroke="#0F0F0F"></path>
                <path d="M218,241 C218,241 210.901706,246.300895 205.22886,261.632653 C199.555231,276.965197 202.904487,281.492554 203.773682,281.782336 C204.643659,282.072118 206.410996,283.137009 210.000434,275.491941" id="Stroke-66" stroke="#0F0F0F"></path>
                <path d="M215.65032,263 C215.65032,263 207.356364,278.691335 210.865676,283.564494 C213.987066,287.898937 217.772728,281.256617 219,278.914472" id="Stroke-67" stroke="#0F0F0F"></path>
                <path d="M222.543941,266 C222.543941,266 215.806925,280.159403 217.186163,286.227602 C218.5654,292.294982 227,280.838099 227,280.838099" id="Stroke-68" stroke="#0F0F0F"></path>
                <path d="M232.299903,272.004686 C232.299903,272.004686 224.471692,284.021139 226.267738,287.705588 C228.393268,292.069784 236.51086,283.999161 236.51086,283.999161 C236.51086,283.999161 248.063271,272.5612 256,263" id="Stroke-69" stroke="#0F0F0F"></path>
                <path d="M202,274.742689 C202,274.742689 204.536515,272.950753 205.555785,274.933741 C206.574302,276.91746 205.861189,279 203.211088,279" id="Stroke-70" stroke="#0F0F0F"></path>
                <path d="M210,279.002881 C210,279.002881 210.898859,277.166949 212.888902,278.463183 C214.879614,279.758619 214.110308,282.567922 211.260806,283" id="Stroke-71" stroke="#0F0F0F"></path>
                <path d="M217,282.166826 C217,282.166826 219.027066,281.446865 219.755386,282.998255 C220.483706,284.549645 219.48193,286.049881 218.116667,285.998728" id="Stroke-72" stroke="#0F0F0F"></path>
                <path d="M226,284.247138 C226,284.247138 227.845755,283.41915 229.565299,284.794249 C231.284175,286.170013 227.448424,288.101541 226,286.214607" id="Stroke-73" stroke="#0F0F0F"></path>
                <path d="M229,229 L226.220614,232.37297 C226.220614,232.37297 208.95338,234.945547 201.569603,251.389757 C201.569603,251.389757 197.977225,258.868472 208.835811,254.775306" id="Stroke-74" stroke="#0F0F0F"></path>
                <path d="M202.606493,250.020645 C202.606493,250.020645 205,249.716826 205,251.44021 C205,253.163593 203.449828,255.168345 202,254.988748" id="Stroke-75" stroke="#0F0F0F"></path>
                <polygon id="Fill-76" fill="#00233C" points="79 191 114 191 114 182 79 182"></polygon>
                <polygon id="Fill-77" fill="#4785FF" points="354 307.346561 385 291 356.947742 385"></polygon>
                <polyline id="Stroke-78" stroke="#0F0F0F" points="321 456.888791 375.263645 463 340.360898 375.521159 352.951231 308.318277 385 292"></polyline>
                <path d="M302,258.5 L404,258.5" id="Stroke-79" stroke="#0F0F0F"></path>
            </g>
        </g>
    </g>
</svg>