<svg xmlns="http://www.w3.org/2000/svg" width="258" height="204" viewBox="0 0 258 204">
  <g id="prototype" transform="translate(2 -52)">
    <path id="Path_7" data-name="Path 7" d="M244,54H152a10.011,10.011,0,0,0-10,10V90a25.081,25.081,0,0,0-20,24.5v17a5,5,0,1,0,10,0v-17a15.066,15.066,0,0,1,10-14.129V244a10.011,10.011,0,0,0,10,10h92a10.011,10.011,0,0,0,10-10V64A10.011,10.011,0,0,0,244,54Zm0,190H152V64h92l.007,180ZM20,158.5a5,5,0,0,1,5-5H56a5,5,0,1,1,0,10H25A5,5,0,0,1,20,158.5Zm0,20a5,5,0,0,1,5-5H87a5,5,0,0,1,0,10H25A5,5,0,0,1,20,178.5ZM20,79a5,5,0,0,1,5-5H87a5,5,0,0,1,0,10H25A5,5,0,0,1,20,79Zm214,82a5,5,0,0,1-5,5H167a5,5,0,1,1,0-10h62A5,5,0,0,1,234,161Zm0,20a5,5,0,0,1-5,5H167a5,5,0,0,1,0-10h62A5,5,0,0,1,234,181Zm-31,20a5,5,0,0,1-5,5H167a5,5,0,0,1,0-10h31A5,5,0,0,1,203,201ZM229,74H167a5,5,0,0,0-5,5v62a5,5,0,0,0,5,5h62a5,5,0,0,0,5-5V79A5,5,0,0,0,229,74Zm-5,62H172V84h52Zm-92,18a5,5,0,1,1-5-5,5.008,5.008,0,0,1,5,5Zm-5,17.5a5.005,5.005,0,0,0-5,5V193.5a15.066,15.066,0,0,1-10,14.13V64a10.011,10.011,0,0,0-10-10H10A10.011,10.011,0,0,0,0,64V244a10.011,10.011,0,0,0,10,10h92a10.011,10.011,0,0,0,10-10V218a24.931,24.931,0,0,0,20-24.5V176.505A5.005,5.005,0,0,0,127,171.505ZM102,244H10V64h92l0,144.5H92a15.017,15.017,0,0,0-15-15H35a15.017,15.017,0,0,0-15,15v10a15.017,15.017,0,0,0,15,15H77a15.017,15.017,0,0,0,15-15h10.006V244ZM82,218.5a5.006,5.006,0,0,1-5,5H35a5.006,5.006,0,0,1-5-5v-10a5.006,5.006,0,0,1,5-5H77a5.006,5.006,0,0,1,5,5Z" fill="#2f89fc" stroke="#2f89fc" stroke-width="4"/>
  </g>
</svg>
